%
M48
M72
T01C0.0157
T02C0.0320
T03C0.0360
T04C0.0400
%
T01
X5717Y4180
X6938Y3786
X2528Y5479
X3552Y3865
X4536Y4495
X5678Y1778
X5323Y873
X3512Y4456
X4615Y8235
X5205Y9101
X6150Y7763
X7252Y9534
X2607Y6975
X3630Y8865
X4536Y5086
X2489Y6424
X3945Y4180
X7607Y3275
X5087Y8668
X5993Y9180
X5087Y7763
X7646Y1267
X3394Y1660
X7174Y2015
X7174Y2920
X7292Y5912
X4457Y7802
X4182Y5086
X5717Y7684
X6504Y9180
T02
X1544Y4185
X1544Y2285
T03
X7843Y6908
X7843Y7908
T04
X9099Y9566
X9099Y8566
X9099Y7566
X9099Y6566
X9099Y5566
X9603Y1605
X8603Y1605
X9603Y2605
X8603Y2605
X9603Y3605
X8603Y3605
M30
