G75*
G70*
%OFA0B0*%
%FSLAX24Y24*%
%IPPOS*%
%LPD*%
%AMOC8*
5,1,8,0,0,1.08239X$1,22.5*
%
%ADD10C,0.0000*%
%ADD11C,0.0438*%
%ADD12R,0.0591X0.0433*%
%ADD13R,0.0433X0.0591*%
%ADD14C,0.0518*%
%ADD15C,0.0478*%
%ADD16R,0.0740X0.0740*%
%ADD17OC8,0.0740*%
%ADD18C,0.0063*%
%ADD19C,0.0276*%
%ADD20C,0.0118*%
D10*
X000363Y000479D02*
X000363Y010322D01*
X010205Y010322D01*
X010205Y000479D01*
X000363Y000479D01*
D11*
X001544Y002285D03*
X001544Y004185D03*
D12*
X002331Y004436D03*
X002331Y003609D03*
X002331Y002861D03*
X002331Y002034D03*
X005087Y006365D03*
X005087Y007192D03*
X006859Y007192D03*
X006859Y006365D03*
X007882Y006208D03*
X007882Y005381D03*
X007843Y008727D03*
X007843Y009554D03*
D13*
X006800Y008629D03*
X005973Y008629D03*
X003965Y007802D03*
X003138Y007802D03*
X003099Y006385D03*
X003926Y006385D03*
X003886Y002054D03*
X004713Y002054D03*
X005973Y001267D03*
X006800Y001267D03*
D14*
X008840Y005566D02*
X009358Y005566D01*
X009358Y006566D02*
X008840Y006566D01*
X008840Y007566D02*
X009358Y007566D01*
X009358Y008566D02*
X008840Y008566D01*
X008840Y009566D02*
X009358Y009566D01*
D15*
X008082Y007908D02*
X007604Y007908D01*
X007604Y006908D02*
X008082Y006908D01*
D16*
X009603Y001605D03*
D17*
X008603Y001605D03*
X008603Y002605D03*
X009603Y002605D03*
X009603Y003605D03*
X008603Y003605D03*
D18*
X008634Y003615D02*
X009123Y003615D01*
X009104Y003637D02*
X009104Y003813D01*
X008811Y004107D01*
X008634Y004107D01*
X008634Y003637D01*
X008571Y003637D01*
X008571Y003574D01*
X008101Y003574D01*
X008101Y003398D01*
X008395Y003104D01*
X008571Y003104D01*
X008571Y003574D01*
X008634Y003574D01*
X008634Y003104D01*
X008811Y003104D01*
X009104Y003398D01*
X009104Y003574D01*
X008634Y003574D01*
X008634Y003637D01*
X009104Y003637D01*
X009104Y003677D02*
X009123Y003677D01*
X009123Y003738D02*
X009104Y003738D01*
X009104Y003800D02*
X009123Y003800D01*
X009123Y003804D02*
X009123Y003406D01*
X009404Y003125D01*
X009802Y003125D01*
X010074Y003397D01*
X010074Y002814D01*
X009802Y003085D01*
X009404Y003085D01*
X009123Y002804D01*
X009123Y002406D01*
X009404Y002125D01*
X009802Y002125D01*
X010074Y002397D01*
X010074Y002030D01*
X010019Y002085D01*
X009187Y002085D01*
X009123Y002021D01*
X009123Y001190D01*
X009187Y001125D01*
X010019Y001125D01*
X010074Y001180D01*
X010074Y000611D01*
X000494Y000611D01*
X000494Y010190D01*
X010074Y010190D01*
X010074Y003814D01*
X009802Y004085D01*
X009745Y004085D01*
X009745Y004447D01*
X009441Y004751D01*
X009358Y004834D01*
X007232Y004834D01*
X007000Y005066D01*
X007000Y006038D01*
X007076Y006038D01*
X007044Y005962D01*
X007044Y005863D01*
X007082Y005772D01*
X007150Y005703D01*
X007150Y005499D01*
X007233Y005416D01*
X007410Y005239D01*
X007477Y005239D01*
X007477Y005119D01*
X007541Y005054D01*
X008223Y005054D01*
X008288Y005119D01*
X008288Y005643D01*
X008223Y005708D01*
X007541Y005708D01*
X007477Y005643D01*
X007477Y005573D01*
X007434Y005617D01*
X007434Y005703D01*
X007502Y005772D01*
X007540Y005863D01*
X007540Y005882D01*
X007541Y005881D01*
X008223Y005881D01*
X008288Y005945D01*
X008288Y006263D01*
X008296Y006268D01*
X008303Y006290D01*
X008481Y006468D01*
X008527Y006357D01*
X008631Y006253D01*
X008766Y006197D01*
X009431Y006197D01*
X009567Y006253D01*
X009671Y006357D01*
X009727Y006492D01*
X009727Y006639D01*
X009671Y006775D01*
X009567Y006879D01*
X009431Y006935D01*
X008766Y006935D01*
X008631Y006879D01*
X008575Y006824D01*
X008575Y007278D01*
X008591Y007263D01*
X008655Y007220D01*
X008726Y007190D01*
X008801Y007175D01*
X009067Y007175D01*
X009067Y007534D01*
X009130Y007534D01*
X009130Y007175D01*
X009396Y007175D01*
X009472Y007190D01*
X009543Y007220D01*
X009607Y007263D01*
X009661Y007317D01*
X009704Y007381D01*
X009734Y007452D01*
X009749Y007527D01*
X009749Y007534D01*
X009130Y007534D01*
X009130Y007597D01*
X009067Y007597D01*
X009067Y007956D01*
X008801Y007956D01*
X008726Y007941D01*
X008655Y007912D01*
X008591Y007869D01*
X008575Y007854D01*
X008575Y008308D01*
X008631Y008253D01*
X008766Y008197D01*
X009431Y008197D01*
X009567Y008253D01*
X009671Y008357D01*
X009727Y008492D01*
X009727Y008639D01*
X009671Y008775D01*
X009567Y008879D01*
X009431Y008935D01*
X008766Y008935D01*
X008631Y008879D01*
X008527Y008775D01*
X008492Y008692D01*
X008315Y008869D01*
X008249Y008869D01*
X008249Y008989D01*
X008184Y009054D01*
X007540Y009054D01*
X007469Y009125D01*
X007272Y009322D01*
X006713Y009322D01*
X006645Y009390D01*
X006554Y009428D01*
X006455Y009428D01*
X006364Y009390D01*
X006294Y009321D01*
X006256Y009229D01*
X006256Y009131D01*
X006294Y009040D01*
X006364Y008970D01*
X006452Y008933D01*
X006452Y008660D01*
X006768Y008660D01*
X006768Y008597D01*
X006831Y008597D01*
X006831Y008202D01*
X007034Y008202D01*
X007067Y008211D01*
X007097Y008228D01*
X007121Y008253D01*
X007139Y008283D01*
X007148Y008316D01*
X007148Y008597D01*
X006831Y008597D01*
X006831Y008660D01*
X007148Y008660D01*
X007148Y008941D01*
X007139Y008975D01*
X007121Y009005D01*
X007097Y009029D01*
X007081Y009038D01*
X007154Y009038D01*
X007268Y008924D01*
X007268Y008283D01*
X007376Y008175D01*
X007308Y008106D01*
X007255Y007978D01*
X007255Y007839D01*
X007308Y007711D01*
X007406Y007612D01*
X007534Y007559D01*
X008152Y007559D01*
X008280Y007612D01*
X008292Y007624D01*
X008292Y007193D01*
X008280Y007205D01*
X008152Y007258D01*
X007534Y007258D01*
X007406Y007205D01*
X007374Y007172D01*
X007315Y007231D01*
X007264Y007282D01*
X007264Y007454D01*
X007200Y007519D01*
X006518Y007519D01*
X006453Y007454D01*
X006453Y006930D01*
X006518Y006865D01*
X007200Y006865D01*
X007240Y006905D01*
X007255Y006891D01*
X007255Y006839D01*
X007308Y006711D01*
X007406Y006612D01*
X007534Y006559D01*
X008152Y006559D01*
X008185Y006573D01*
X008147Y006534D01*
X007541Y006534D01*
X007477Y006470D01*
X007477Y006078D01*
X007432Y006123D01*
X007341Y006160D01*
X007264Y006160D01*
X007264Y006627D01*
X007200Y006692D01*
X006518Y006692D01*
X006453Y006627D01*
X006453Y006507D01*
X005493Y006507D01*
X005493Y006627D01*
X005483Y006637D01*
X005658Y006637D01*
X005776Y006755D01*
X005859Y006838D01*
X005859Y007475D01*
X005927Y007543D01*
X005965Y007635D01*
X005965Y007733D01*
X005927Y007824D01*
X005858Y007894D01*
X005766Y007932D01*
X005668Y007932D01*
X005577Y007894D01*
X005507Y007824D01*
X005469Y007733D01*
X005469Y007635D01*
X005507Y007543D01*
X005575Y007475D01*
X005575Y006955D01*
X005540Y006920D01*
X005483Y006920D01*
X005493Y006930D01*
X005493Y007454D01*
X005428Y007519D01*
X005256Y007519D01*
X005256Y007581D01*
X005297Y007622D01*
X005335Y007713D01*
X005335Y007812D01*
X005297Y007903D01*
X005228Y007973D01*
X005136Y008011D01*
X005038Y008011D01*
X004947Y007973D01*
X004877Y007903D01*
X004839Y007812D01*
X004839Y007713D01*
X004877Y007622D01*
X004918Y007581D01*
X004918Y007519D01*
X004746Y007519D01*
X004682Y007454D01*
X004682Y006930D01*
X004691Y006920D01*
X004517Y006920D01*
X004434Y006837D01*
X004398Y006802D01*
X004315Y006719D01*
X004315Y005420D01*
X004229Y005334D01*
X004132Y005334D01*
X004041Y005296D01*
X003971Y005226D01*
X003934Y005135D01*
X003934Y005036D01*
X003971Y004945D01*
X004041Y004875D01*
X004132Y004838D01*
X004231Y004838D01*
X004322Y004875D01*
X004359Y004912D01*
X004395Y004875D01*
X004487Y004838D01*
X004585Y004838D01*
X004676Y004875D01*
X004746Y004945D01*
X004784Y005036D01*
X004784Y005135D01*
X004756Y005201D01*
X004756Y006038D01*
X005428Y006038D01*
X005493Y006103D01*
X005493Y006223D01*
X006453Y006223D01*
X006453Y006103D01*
X006518Y006038D01*
X006717Y006038D01*
X006717Y004948D01*
X006800Y004865D01*
X007115Y004550D01*
X009241Y004550D01*
X009461Y004330D01*
X009461Y004085D01*
X009404Y004085D01*
X009123Y003804D01*
X009180Y003861D02*
X009056Y003861D01*
X008994Y003923D02*
X009241Y003923D01*
X009303Y003984D02*
X008933Y003984D01*
X008872Y004046D02*
X009364Y004046D01*
X009461Y004107D02*
X004184Y004107D01*
X004193Y004131D02*
X004156Y004040D01*
X004086Y003970D01*
X003995Y003932D01*
X003896Y003932D01*
X003805Y003970D01*
X003735Y004040D01*
X003697Y004131D01*
X003697Y004229D01*
X003735Y004321D01*
X003776Y004362D01*
X003776Y004386D01*
X003009Y005152D01*
X002910Y005252D01*
X002910Y005979D01*
X002837Y005979D01*
X002772Y006044D01*
X002772Y006255D01*
X002670Y006255D01*
X002629Y006214D01*
X002538Y006176D01*
X002439Y006176D01*
X002348Y006214D01*
X002278Y006284D01*
X002241Y006375D01*
X002241Y006473D01*
X002278Y006565D01*
X002348Y006634D01*
X002439Y006672D01*
X002538Y006672D01*
X002629Y006634D01*
X002670Y006593D01*
X002772Y006593D01*
X002772Y006726D01*
X002837Y006790D01*
X003361Y006790D01*
X003426Y006726D01*
X003426Y006044D01*
X003361Y005979D01*
X003249Y005979D01*
X003249Y005392D01*
X004115Y004526D01*
X004115Y004362D01*
X004156Y004321D01*
X004193Y004229D01*
X004193Y004131D01*
X004193Y004169D02*
X009461Y004169D01*
X009461Y004230D02*
X004193Y004230D01*
X004168Y004292D02*
X009461Y004292D01*
X009438Y004353D02*
X004123Y004353D01*
X004115Y004415D02*
X009376Y004415D01*
X009315Y004476D02*
X004115Y004476D01*
X004103Y004538D02*
X009253Y004538D01*
X009300Y004692D02*
X007174Y004692D01*
X006859Y005007D01*
X006859Y006365D01*
X005087Y006365D01*
X005067Y006345D01*
X004733Y006345D01*
X004615Y006227D01*
X004615Y005164D01*
X004536Y005086D01*
X004708Y004907D02*
X006758Y004907D01*
X006717Y004968D02*
X004756Y004968D01*
X004781Y005030D02*
X006717Y005030D01*
X006717Y005091D02*
X004784Y005091D01*
X004777Y005153D02*
X006717Y005153D01*
X006717Y005214D02*
X004756Y005214D01*
X004756Y005276D02*
X006717Y005276D01*
X006717Y005337D02*
X004756Y005337D01*
X004756Y005399D02*
X006717Y005399D01*
X006717Y005460D02*
X004756Y005460D01*
X004756Y005522D02*
X006717Y005522D01*
X006717Y005583D02*
X004756Y005583D01*
X004756Y005645D02*
X006717Y005645D01*
X006717Y005706D02*
X004756Y005706D01*
X004756Y005768D02*
X006717Y005768D01*
X006717Y005829D02*
X004756Y005829D01*
X004756Y005891D02*
X006717Y005891D01*
X006717Y005952D02*
X004756Y005952D01*
X004756Y006014D02*
X006717Y006014D01*
X006481Y006075D02*
X005465Y006075D01*
X005493Y006137D02*
X006453Y006137D01*
X006453Y006198D02*
X005493Y006198D01*
X005493Y006567D02*
X006453Y006567D01*
X006454Y006629D02*
X005491Y006629D01*
X005711Y006690D02*
X006516Y006690D01*
X006508Y006874D02*
X005859Y006874D01*
X005859Y006936D02*
X006453Y006936D01*
X006453Y006997D02*
X005859Y006997D01*
X005859Y007059D02*
X006453Y007059D01*
X006453Y007120D02*
X005859Y007120D01*
X005859Y007182D02*
X006453Y007182D01*
X006453Y007243D02*
X005859Y007243D01*
X005859Y007305D02*
X006453Y007305D01*
X006453Y007366D02*
X005859Y007366D01*
X005859Y007428D02*
X006453Y007428D01*
X006489Y007489D02*
X005873Y007489D01*
X005930Y007551D02*
X008292Y007551D01*
X008292Y007612D02*
X008280Y007612D01*
X008292Y007489D02*
X007229Y007489D01*
X007264Y007428D02*
X008292Y007428D01*
X008292Y007366D02*
X007264Y007366D01*
X007264Y007305D02*
X008292Y007305D01*
X008292Y007243D02*
X008186Y007243D01*
X008575Y007243D02*
X008619Y007243D01*
X008575Y007182D02*
X008768Y007182D01*
X008575Y007120D02*
X010074Y007120D01*
X010074Y007059D02*
X008575Y007059D01*
X008575Y006997D02*
X010074Y006997D01*
X010074Y006936D02*
X008575Y006936D01*
X008575Y006874D02*
X008626Y006874D01*
X008434Y006621D02*
X008434Y008550D01*
X009083Y008550D01*
X009099Y008566D01*
X009506Y008227D02*
X010074Y008227D01*
X010074Y008166D02*
X008575Y008166D01*
X008575Y008227D02*
X008692Y008227D01*
X008595Y008289D02*
X008575Y008289D01*
X008575Y008104D02*
X010074Y008104D01*
X010074Y008043D02*
X008575Y008043D01*
X008575Y007981D02*
X010074Y007981D01*
X010074Y007920D02*
X009524Y007920D01*
X009543Y007912D02*
X009472Y007941D01*
X009396Y007956D01*
X009130Y007956D01*
X009130Y007597D01*
X009749Y007597D01*
X009749Y007604D01*
X009734Y007680D01*
X009704Y007751D01*
X009661Y007815D01*
X009607Y007869D01*
X009543Y007912D01*
X009618Y007858D02*
X010074Y007858D01*
X010074Y007797D02*
X009673Y007797D01*
X009711Y007735D02*
X010074Y007735D01*
X010074Y007674D02*
X009735Y007674D01*
X009747Y007612D02*
X010074Y007612D01*
X010074Y007551D02*
X009130Y007551D01*
X009130Y007612D02*
X009067Y007612D01*
X009067Y007674D02*
X009130Y007674D01*
X009130Y007735D02*
X009067Y007735D01*
X009067Y007797D02*
X009130Y007797D01*
X009130Y007858D02*
X009067Y007858D01*
X009067Y007920D02*
X009130Y007920D01*
X009603Y008289D02*
X010074Y008289D01*
X010074Y008350D02*
X009665Y008350D01*
X009694Y008412D02*
X010074Y008412D01*
X010074Y008473D02*
X009719Y008473D01*
X009727Y008535D02*
X010074Y008535D01*
X010074Y008596D02*
X009727Y008596D01*
X009720Y008658D02*
X010074Y008658D01*
X010074Y008719D02*
X009694Y008719D01*
X009665Y008781D02*
X010074Y008781D01*
X010074Y008842D02*
X009604Y008842D01*
X009507Y008904D02*
X010074Y008904D01*
X010074Y008965D02*
X008249Y008965D01*
X008249Y008904D02*
X008690Y008904D01*
X008594Y008842D02*
X008342Y008842D01*
X008403Y008781D02*
X008532Y008781D01*
X008504Y008719D02*
X008465Y008719D01*
X008492Y008692D02*
X008492Y008692D01*
X008434Y008550D02*
X008256Y008727D01*
X007843Y008727D01*
X008211Y009027D02*
X010074Y009027D01*
X010074Y009088D02*
X007505Y009088D01*
X007444Y009150D02*
X010074Y009150D01*
X010074Y009211D02*
X009467Y009211D01*
X009431Y009197D02*
X009567Y009253D01*
X009671Y009357D01*
X009727Y009492D01*
X009727Y009639D01*
X009671Y009775D01*
X009567Y009879D01*
X009431Y009935D01*
X008766Y009935D01*
X008631Y009879D01*
X008527Y009775D01*
X008471Y009639D01*
X008471Y009492D01*
X008527Y009357D01*
X008631Y009253D01*
X008766Y009197D01*
X009431Y009197D01*
X009587Y009273D02*
X010074Y009273D01*
X010074Y009334D02*
X009649Y009334D01*
X009687Y009396D02*
X010074Y009396D01*
X010074Y009457D02*
X009713Y009457D01*
X009727Y009519D02*
X010074Y009519D01*
X010074Y009580D02*
X009727Y009580D01*
X009726Y009642D02*
X010074Y009642D01*
X010074Y009703D02*
X009701Y009703D01*
X009675Y009765D02*
X010074Y009765D01*
X010074Y009826D02*
X009620Y009826D01*
X009546Y009888D02*
X010074Y009888D01*
X010074Y009949D02*
X000494Y009949D01*
X000494Y009888D02*
X007487Y009888D01*
X007497Y009893D02*
X007467Y009876D01*
X007443Y009851D01*
X007425Y009821D01*
X007416Y009788D01*
X007416Y009586D01*
X007812Y009586D01*
X007812Y009902D01*
X007530Y009902D01*
X007497Y009893D01*
X007428Y009826D02*
X000494Y009826D01*
X000494Y009765D02*
X007416Y009765D01*
X007416Y009703D02*
X000494Y009703D01*
X000494Y009642D02*
X007416Y009642D01*
X007416Y009523D02*
X007416Y009320D01*
X007425Y009287D01*
X007443Y009257D01*
X007467Y009232D01*
X007497Y009215D01*
X007530Y009206D01*
X007812Y009206D01*
X007812Y009523D01*
X007875Y009523D01*
X007875Y009586D01*
X007812Y009586D01*
X007812Y009523D01*
X007416Y009523D01*
X007416Y009519D02*
X000494Y009519D01*
X000494Y009580D02*
X007812Y009580D01*
X007812Y009519D02*
X007875Y009519D01*
X007875Y009523D02*
X007875Y009206D01*
X008156Y009206D01*
X008189Y009215D01*
X008219Y009232D01*
X008244Y009257D01*
X008261Y009287D01*
X008270Y009320D01*
X008270Y009523D01*
X007875Y009523D01*
X007875Y009580D02*
X008471Y009580D01*
X008471Y009519D02*
X008270Y009519D01*
X008270Y009457D02*
X008485Y009457D01*
X008511Y009396D02*
X008270Y009396D01*
X008270Y009334D02*
X008549Y009334D01*
X008611Y009273D02*
X008253Y009273D01*
X008175Y009211D02*
X008731Y009211D01*
X008472Y009642D02*
X008270Y009642D01*
X008270Y009586D02*
X008270Y009788D01*
X008261Y009821D01*
X008244Y009851D01*
X008219Y009876D01*
X008189Y009893D01*
X008156Y009902D01*
X007875Y009902D01*
X007875Y009586D01*
X008270Y009586D01*
X008270Y009703D02*
X008497Y009703D01*
X008522Y009765D02*
X008270Y009765D01*
X008258Y009826D02*
X008578Y009826D01*
X008652Y009888D02*
X008199Y009888D01*
X007875Y009888D02*
X007812Y009888D01*
X007812Y009826D02*
X007875Y009826D01*
X007875Y009765D02*
X007812Y009765D01*
X007812Y009703D02*
X007875Y009703D01*
X007875Y009642D02*
X007812Y009642D01*
X007812Y009457D02*
X007875Y009457D01*
X007875Y009396D02*
X007812Y009396D01*
X007812Y009334D02*
X007875Y009334D01*
X007875Y009273D02*
X007812Y009273D01*
X007812Y009211D02*
X007875Y009211D01*
X007511Y009211D02*
X007382Y009211D01*
X007433Y009273D02*
X007321Y009273D01*
X007416Y009334D02*
X006701Y009334D01*
X006632Y009396D02*
X007416Y009396D01*
X007416Y009457D02*
X000494Y009457D01*
X000494Y009396D02*
X005865Y009396D01*
X005852Y009390D02*
X005782Y009321D01*
X005745Y009229D01*
X005745Y009131D01*
X005782Y009040D01*
X005788Y009034D01*
X005711Y009034D01*
X005646Y008970D01*
X005646Y008798D01*
X005302Y008798D01*
X005297Y008809D01*
X005228Y008879D01*
X005136Y008916D01*
X005038Y008916D01*
X004947Y008879D01*
X004877Y008809D01*
X004839Y008718D01*
X004839Y008619D01*
X004877Y008528D01*
X004947Y008458D01*
X005038Y008420D01*
X005136Y008420D01*
X005228Y008458D01*
X005229Y008460D01*
X005646Y008460D01*
X005646Y008288D01*
X005711Y008223D01*
X006235Y008223D01*
X006300Y008288D01*
X006300Y008970D01*
X006235Y009034D01*
X006198Y009034D01*
X006203Y009040D01*
X006241Y009131D01*
X006241Y009229D01*
X006203Y009321D01*
X006133Y009390D01*
X006042Y009428D01*
X005943Y009428D01*
X005852Y009390D01*
X005796Y009334D02*
X000494Y009334D01*
X000494Y009273D02*
X005763Y009273D01*
X005745Y009211D02*
X000494Y009211D01*
X000494Y009150D02*
X005745Y009150D01*
X005762Y009088D02*
X000494Y009088D01*
X000494Y009027D02*
X005703Y009027D01*
X005646Y008965D02*
X000494Y008965D01*
X000494Y008904D02*
X005007Y008904D01*
X004910Y008842D02*
X000494Y008842D01*
X000494Y008781D02*
X004865Y008781D01*
X004840Y008719D02*
X000494Y008719D01*
X000494Y008658D02*
X004839Y008658D01*
X004848Y008596D02*
X000494Y008596D01*
X000494Y008535D02*
X004874Y008535D01*
X004931Y008473D02*
X000494Y008473D01*
X000494Y008412D02*
X005646Y008412D01*
X005646Y008350D02*
X000494Y008350D01*
X000494Y008289D02*
X005646Y008289D01*
X005707Y008227D02*
X003378Y008227D01*
X003372Y008229D02*
X003170Y008229D01*
X003170Y007834D01*
X003107Y007834D01*
X003107Y008229D01*
X002904Y008229D01*
X002871Y008220D01*
X002841Y008203D01*
X002817Y008178D01*
X002799Y008148D01*
X002790Y008115D01*
X002790Y007834D01*
X003107Y007834D01*
X003107Y007771D01*
X002790Y007771D01*
X002790Y007490D01*
X002799Y007456D01*
X002817Y007426D01*
X002841Y007402D01*
X002871Y007384D01*
X002904Y007375D01*
X003107Y007375D01*
X003107Y007771D01*
X003170Y007771D01*
X003170Y007834D01*
X003486Y007834D01*
X003486Y008115D01*
X003477Y008148D01*
X003460Y008178D01*
X003436Y008203D01*
X003406Y008220D01*
X003372Y008229D01*
X003467Y008166D02*
X003661Y008166D01*
X003638Y008143D02*
X003638Y007461D01*
X003703Y007397D01*
X004227Y007397D01*
X004292Y007461D01*
X004292Y007617D01*
X004317Y007592D01*
X004408Y007554D01*
X004507Y007554D01*
X004598Y007592D01*
X004667Y007662D01*
X004705Y007753D01*
X004705Y007851D01*
X004667Y007943D01*
X004598Y008012D01*
X004507Y008050D01*
X004408Y008050D01*
X004317Y008012D01*
X004292Y007988D01*
X004292Y008143D01*
X004227Y008208D01*
X003703Y008208D01*
X003638Y008143D01*
X003638Y008104D02*
X003486Y008104D01*
X003486Y008043D02*
X003638Y008043D01*
X003638Y007981D02*
X003486Y007981D01*
X003486Y007920D02*
X003638Y007920D01*
X003638Y007858D02*
X003486Y007858D01*
X003486Y007771D02*
X003170Y007771D01*
X003170Y007375D01*
X003372Y007375D01*
X003406Y007384D01*
X003436Y007402D01*
X003460Y007426D01*
X003477Y007456D01*
X003486Y007490D01*
X003486Y007771D01*
X003486Y007735D02*
X003638Y007735D01*
X003638Y007674D02*
X003486Y007674D01*
X003486Y007612D02*
X003638Y007612D01*
X003638Y007551D02*
X003486Y007551D01*
X003486Y007489D02*
X003638Y007489D01*
X003672Y007428D02*
X003461Y007428D01*
X003170Y007428D02*
X003107Y007428D01*
X003107Y007489D02*
X003170Y007489D01*
X003170Y007551D02*
X003107Y007551D01*
X003107Y007612D02*
X003170Y007612D01*
X003170Y007674D02*
X003107Y007674D01*
X003107Y007735D02*
X003170Y007735D01*
X003170Y007797D02*
X003638Y007797D01*
X003170Y007858D02*
X003107Y007858D01*
X003107Y007797D02*
X000494Y007797D01*
X000494Y007858D02*
X002790Y007858D01*
X002790Y007920D02*
X000494Y007920D01*
X000494Y007981D02*
X002790Y007981D01*
X002790Y008043D02*
X000494Y008043D01*
X000494Y008104D02*
X002790Y008104D01*
X002809Y008166D02*
X000494Y008166D01*
X000494Y008227D02*
X002899Y008227D01*
X003107Y008227D02*
X003170Y008227D01*
X003170Y008166D02*
X003107Y008166D01*
X003107Y008104D02*
X003170Y008104D01*
X003170Y008043D02*
X003107Y008043D01*
X003107Y007981D02*
X003170Y007981D01*
X003170Y007920D02*
X003107Y007920D01*
X002790Y007735D02*
X000494Y007735D01*
X000494Y007674D02*
X002790Y007674D01*
X002790Y007612D02*
X000494Y007612D01*
X000494Y007551D02*
X002790Y007551D01*
X002790Y007489D02*
X000494Y007489D01*
X000494Y007428D02*
X002815Y007428D01*
X003604Y006761D02*
X003587Y006731D01*
X003578Y006697D01*
X003578Y006416D01*
X003894Y006416D01*
X003894Y006353D01*
X003957Y006353D01*
X003957Y005958D01*
X004160Y005958D01*
X004193Y005967D01*
X004223Y005984D01*
X004247Y006009D01*
X004265Y006039D01*
X004274Y006072D01*
X004274Y006353D01*
X003957Y006353D01*
X003957Y006416D01*
X004274Y006416D01*
X004274Y006697D01*
X004265Y006731D01*
X004247Y006761D01*
X004223Y006785D01*
X004193Y006803D01*
X004160Y006812D01*
X003957Y006812D01*
X003957Y006416D01*
X003894Y006416D01*
X003894Y006812D01*
X003692Y006812D01*
X003658Y006803D01*
X003628Y006785D01*
X003604Y006761D01*
X003599Y006751D02*
X003400Y006751D01*
X003426Y006690D02*
X003578Y006690D01*
X003578Y006629D02*
X003426Y006629D01*
X003426Y006567D02*
X003578Y006567D01*
X003578Y006506D02*
X003426Y006506D01*
X003426Y006444D02*
X003578Y006444D01*
X003578Y006353D02*
X003578Y006072D01*
X003587Y006039D01*
X003604Y006009D01*
X003628Y005984D01*
X003658Y005967D01*
X003692Y005958D01*
X003894Y005958D01*
X003894Y006353D01*
X003578Y006353D01*
X003578Y006321D02*
X003426Y006321D01*
X003426Y006260D02*
X003578Y006260D01*
X003578Y006198D02*
X003426Y006198D01*
X003426Y006137D02*
X003578Y006137D01*
X003578Y006075D02*
X003426Y006075D01*
X003395Y006014D02*
X003601Y006014D01*
X003894Y006014D02*
X003957Y006014D01*
X003957Y006075D02*
X003894Y006075D01*
X003894Y006137D02*
X003957Y006137D01*
X003957Y006198D02*
X003894Y006198D01*
X003894Y006260D02*
X003957Y006260D01*
X003957Y006321D02*
X003894Y006321D01*
X003894Y006383D02*
X003426Y006383D01*
X003894Y006444D02*
X003957Y006444D01*
X003957Y006383D02*
X004315Y006383D01*
X004315Y006444D02*
X004274Y006444D01*
X004274Y006506D02*
X004315Y006506D01*
X004315Y006567D02*
X004274Y006567D01*
X004274Y006629D02*
X004315Y006629D01*
X004315Y006690D02*
X004274Y006690D01*
X004253Y006751D02*
X004348Y006751D01*
X004398Y006802D02*
X004398Y006802D01*
X004409Y006813D02*
X000494Y006813D01*
X000494Y006874D02*
X004471Y006874D01*
X004434Y006837D02*
X004434Y006837D01*
X004575Y006778D02*
X004457Y006660D01*
X004457Y005361D01*
X004182Y005086D01*
X004010Y004907D02*
X003734Y004907D01*
X003672Y004968D02*
X003962Y004968D01*
X003936Y005030D02*
X003611Y005030D01*
X003549Y005091D02*
X003934Y005091D01*
X003941Y005153D02*
X003488Y005153D01*
X003426Y005214D02*
X003966Y005214D01*
X004021Y005276D02*
X003365Y005276D01*
X003303Y005337D02*
X004233Y005337D01*
X004294Y005399D02*
X003249Y005399D01*
X003249Y005460D02*
X004315Y005460D01*
X004315Y005522D02*
X003249Y005522D01*
X003249Y005583D02*
X004315Y005583D01*
X004315Y005645D02*
X003249Y005645D01*
X003249Y005706D02*
X004315Y005706D01*
X004315Y005768D02*
X003249Y005768D01*
X003249Y005829D02*
X004315Y005829D01*
X004315Y005891D02*
X003249Y005891D01*
X003249Y005952D02*
X004315Y005952D01*
X004315Y006014D02*
X004250Y006014D01*
X004274Y006075D02*
X004315Y006075D01*
X004315Y006137D02*
X004274Y006137D01*
X004274Y006198D02*
X004315Y006198D01*
X004315Y006260D02*
X004274Y006260D01*
X004274Y006321D02*
X004315Y006321D01*
X003957Y006506D02*
X003894Y006506D01*
X003894Y006567D02*
X003957Y006567D01*
X003957Y006629D02*
X003894Y006629D01*
X003894Y006690D02*
X003957Y006690D01*
X003957Y006751D02*
X003894Y006751D01*
X004575Y006778D02*
X005599Y006778D01*
X005717Y006897D01*
X005717Y007684D01*
X005893Y007858D02*
X007255Y007858D01*
X007255Y007920D02*
X005796Y007920D01*
X005638Y007920D02*
X005281Y007920D01*
X005316Y007858D02*
X005541Y007858D01*
X005495Y007797D02*
X005335Y007797D01*
X005335Y007735D02*
X005470Y007735D01*
X005469Y007674D02*
X005319Y007674D01*
X005288Y007612D02*
X005478Y007612D01*
X005504Y007551D02*
X005256Y007551D01*
X005457Y007489D02*
X005561Y007489D01*
X005575Y007428D02*
X005493Y007428D01*
X005493Y007366D02*
X005575Y007366D01*
X005575Y007305D02*
X005493Y007305D01*
X005493Y007243D02*
X005575Y007243D01*
X005575Y007182D02*
X005493Y007182D01*
X005493Y007120D02*
X005575Y007120D01*
X005575Y007059D02*
X005493Y007059D01*
X005493Y006997D02*
X005575Y006997D01*
X005556Y006936D02*
X005493Y006936D01*
X005772Y006751D02*
X007291Y006751D01*
X007265Y006813D02*
X005834Y006813D01*
X005956Y007612D02*
X007406Y007612D01*
X007345Y007674D02*
X005965Y007674D01*
X005964Y007735D02*
X007298Y007735D01*
X007272Y007797D02*
X005939Y007797D01*
X006239Y008227D02*
X006504Y008227D01*
X006502Y008228D02*
X006532Y008211D01*
X006566Y008202D01*
X006768Y008202D01*
X006768Y008597D01*
X006452Y008597D01*
X006452Y008316D01*
X006461Y008283D01*
X006478Y008253D01*
X006502Y008228D01*
X006459Y008289D02*
X006300Y008289D01*
X006300Y008350D02*
X006452Y008350D01*
X006452Y008412D02*
X006300Y008412D01*
X006300Y008473D02*
X006452Y008473D01*
X006452Y008535D02*
X006300Y008535D01*
X006300Y008596D02*
X006452Y008596D01*
X006452Y008719D02*
X006300Y008719D01*
X006300Y008658D02*
X006768Y008658D01*
X006768Y008596D02*
X006831Y008596D01*
X006831Y008535D02*
X006768Y008535D01*
X006768Y008473D02*
X006831Y008473D01*
X006831Y008412D02*
X006768Y008412D01*
X006768Y008350D02*
X006831Y008350D01*
X006831Y008289D02*
X006768Y008289D01*
X006768Y008227D02*
X006831Y008227D01*
X007095Y008227D02*
X007324Y008227D01*
X007367Y008166D02*
X004269Y008166D01*
X004292Y008104D02*
X007307Y008104D01*
X007282Y008043D02*
X004524Y008043D01*
X004629Y007981D02*
X004967Y007981D01*
X004893Y007920D02*
X004677Y007920D01*
X004702Y007858D02*
X004858Y007858D01*
X004839Y007797D02*
X004705Y007797D01*
X004698Y007735D02*
X004839Y007735D01*
X004855Y007674D02*
X004673Y007674D01*
X004618Y007612D02*
X004887Y007612D01*
X004918Y007551D02*
X004292Y007551D01*
X004292Y007612D02*
X004296Y007612D01*
X004292Y007489D02*
X004717Y007489D01*
X004682Y007428D02*
X004259Y007428D01*
X004682Y007366D02*
X000494Y007366D01*
X000494Y007305D02*
X004682Y007305D01*
X004682Y007243D02*
X000494Y007243D01*
X000494Y007182D02*
X004682Y007182D01*
X004682Y007120D02*
X000494Y007120D01*
X000494Y007059D02*
X004682Y007059D01*
X004682Y006997D02*
X000494Y006997D01*
X000494Y006936D02*
X004682Y006936D01*
X004390Y008043D02*
X004292Y008043D01*
X005207Y007981D02*
X007256Y007981D01*
X007268Y008289D02*
X007140Y008289D01*
X007148Y008350D02*
X007268Y008350D01*
X007268Y008412D02*
X007148Y008412D01*
X007148Y008473D02*
X007268Y008473D01*
X007268Y008535D02*
X007148Y008535D01*
X007148Y008596D02*
X007268Y008596D01*
X007268Y008658D02*
X006831Y008658D01*
X007148Y008719D02*
X007268Y008719D01*
X007268Y008781D02*
X007148Y008781D01*
X007148Y008842D02*
X007268Y008842D01*
X007268Y008904D02*
X007148Y008904D01*
X007141Y008965D02*
X007227Y008965D01*
X007166Y009027D02*
X007100Y009027D01*
X007213Y009180D02*
X007410Y008983D01*
X007410Y008341D01*
X007843Y007908D01*
X008575Y007920D02*
X008674Y007920D01*
X008580Y007858D02*
X008575Y007858D01*
X009067Y007489D02*
X009130Y007489D01*
X009130Y007428D02*
X009067Y007428D01*
X009067Y007366D02*
X009130Y007366D01*
X009130Y007305D02*
X009067Y007305D01*
X009067Y007243D02*
X009130Y007243D01*
X009130Y007182D02*
X009067Y007182D01*
X009430Y007182D02*
X010074Y007182D01*
X010074Y007243D02*
X009578Y007243D01*
X009649Y007305D02*
X010074Y007305D01*
X010074Y007366D02*
X009694Y007366D01*
X009724Y007428D02*
X010074Y007428D01*
X010074Y007489D02*
X009741Y007489D01*
X009572Y006874D02*
X010074Y006874D01*
X010074Y006813D02*
X009633Y006813D01*
X009681Y006751D02*
X010074Y006751D01*
X010074Y006690D02*
X009706Y006690D01*
X009727Y006629D02*
X010074Y006629D01*
X010074Y006567D02*
X009727Y006567D01*
X009727Y006506D02*
X010074Y006506D01*
X010074Y006444D02*
X009707Y006444D01*
X009682Y006383D02*
X010074Y006383D01*
X010074Y006321D02*
X009635Y006321D01*
X009574Y006260D02*
X010074Y006260D01*
X010074Y006198D02*
X009435Y006198D01*
X009431Y005935D02*
X009567Y005879D01*
X009671Y005775D01*
X009727Y005639D01*
X009727Y005492D01*
X009671Y005357D01*
X009567Y005253D01*
X009431Y005197D01*
X008766Y005197D01*
X008631Y005253D01*
X008527Y005357D01*
X008471Y005492D01*
X008471Y005639D01*
X008527Y005775D01*
X008631Y005879D01*
X008766Y005935D01*
X009431Y005935D01*
X009539Y005891D02*
X010074Y005891D01*
X010074Y005952D02*
X008288Y005952D01*
X008288Y006014D02*
X010074Y006014D01*
X010074Y006075D02*
X008288Y006075D01*
X008288Y006137D02*
X010074Y006137D01*
X010074Y005829D02*
X009617Y005829D01*
X009674Y005768D02*
X010074Y005768D01*
X010074Y005706D02*
X009700Y005706D01*
X009725Y005645D02*
X010074Y005645D01*
X010074Y005583D02*
X009727Y005583D01*
X009727Y005522D02*
X010074Y005522D01*
X010074Y005460D02*
X009714Y005460D01*
X009688Y005399D02*
X010074Y005399D01*
X010074Y005337D02*
X009652Y005337D01*
X009590Y005276D02*
X010074Y005276D01*
X010074Y005214D02*
X009474Y005214D01*
X009408Y004784D02*
X010074Y004784D01*
X010074Y004845D02*
X007221Y004845D01*
X007159Y004907D02*
X010074Y004907D01*
X010074Y004968D02*
X007098Y004968D01*
X007036Y005030D02*
X010074Y005030D01*
X010074Y005091D02*
X008260Y005091D01*
X008288Y005153D02*
X010074Y005153D01*
X010074Y004722D02*
X009470Y004722D01*
X009531Y004661D02*
X010074Y004661D01*
X010074Y004599D02*
X009593Y004599D01*
X009654Y004538D02*
X010074Y004538D01*
X010074Y004476D02*
X009716Y004476D01*
X009745Y004415D02*
X010074Y004415D01*
X010074Y004353D02*
X009745Y004353D01*
X009745Y004292D02*
X010074Y004292D01*
X010074Y004230D02*
X009745Y004230D01*
X009745Y004169D02*
X010074Y004169D01*
X010074Y004107D02*
X009745Y004107D01*
X009841Y004046D02*
X010074Y004046D01*
X010074Y003984D02*
X009903Y003984D01*
X009964Y003923D02*
X010074Y003923D01*
X010074Y003861D02*
X010026Y003861D01*
X009603Y003605D02*
X009603Y004389D01*
X009300Y004692D01*
X008724Y005214D02*
X008288Y005214D01*
X008288Y005276D02*
X008608Y005276D01*
X008546Y005337D02*
X008288Y005337D01*
X008288Y005399D02*
X008509Y005399D01*
X008484Y005460D02*
X008288Y005460D01*
X008288Y005522D02*
X008471Y005522D01*
X008471Y005583D02*
X008288Y005583D01*
X008286Y005645D02*
X008473Y005645D01*
X008498Y005706D02*
X008225Y005706D01*
X008233Y005891D02*
X008659Y005891D01*
X008581Y005829D02*
X007526Y005829D01*
X007498Y005768D02*
X008524Y005768D01*
X008288Y006198D02*
X008763Y006198D01*
X008624Y006260D02*
X008288Y006260D01*
X008334Y006321D02*
X008562Y006321D01*
X008516Y006383D02*
X008396Y006383D01*
X008457Y006444D02*
X008491Y006444D01*
X008434Y006621D02*
X008178Y006365D01*
X007882Y006208D01*
X007513Y006506D02*
X007264Y006506D01*
X007264Y006567D02*
X007515Y006567D01*
X007477Y006444D02*
X007264Y006444D01*
X007264Y006383D02*
X007477Y006383D01*
X007477Y006321D02*
X007264Y006321D01*
X007264Y006260D02*
X007477Y006260D01*
X007477Y006198D02*
X007264Y006198D01*
X007399Y006137D02*
X007477Y006137D01*
X007292Y005912D02*
X007292Y005558D01*
X007469Y005381D01*
X007882Y005381D01*
X007477Y005214D02*
X007000Y005214D01*
X007000Y005153D02*
X007477Y005153D01*
X007504Y005091D02*
X007000Y005091D01*
X007000Y005276D02*
X007374Y005276D01*
X007312Y005337D02*
X007000Y005337D01*
X007000Y005399D02*
X007251Y005399D01*
X007189Y005460D02*
X007000Y005460D01*
X007000Y005522D02*
X007150Y005522D01*
X007150Y005583D02*
X007000Y005583D01*
X007000Y005645D02*
X007150Y005645D01*
X007147Y005706D02*
X007000Y005706D01*
X007000Y005768D02*
X007086Y005768D01*
X007058Y005829D02*
X007000Y005829D01*
X007000Y005891D02*
X007044Y005891D01*
X007044Y005952D02*
X007000Y005952D01*
X007000Y006014D02*
X007065Y006014D01*
X007436Y005706D02*
X007540Y005706D01*
X007478Y005645D02*
X007434Y005645D01*
X007467Y005583D02*
X007477Y005583D01*
X006820Y004845D02*
X004604Y004845D01*
X004468Y004845D02*
X004250Y004845D01*
X004354Y004907D02*
X004364Y004907D01*
X004114Y004845D02*
X003795Y004845D01*
X003857Y004784D02*
X006881Y004784D01*
X006943Y004722D02*
X003918Y004722D01*
X003980Y004661D02*
X007004Y004661D01*
X007066Y004599D02*
X004041Y004599D01*
X003747Y004415D02*
X002737Y004415D01*
X002737Y004476D02*
X003685Y004476D01*
X003624Y004538D02*
X002737Y004538D01*
X002737Y004599D02*
X003562Y004599D01*
X003501Y004661D02*
X002737Y004661D01*
X002737Y004698D02*
X002672Y004763D01*
X001990Y004763D01*
X001926Y004698D01*
X001926Y004578D01*
X001736Y004578D01*
X001654Y004496D01*
X001609Y004514D01*
X001478Y004514D01*
X001357Y004464D01*
X001265Y004372D01*
X001215Y004251D01*
X001215Y004120D01*
X001265Y003999D01*
X001357Y003906D01*
X001478Y003856D01*
X001609Y003856D01*
X001730Y003906D01*
X001823Y003999D01*
X001873Y004120D01*
X001873Y004251D01*
X001855Y004294D01*
X001926Y004294D01*
X001926Y004174D01*
X001990Y004109D01*
X002672Y004109D01*
X002737Y004174D01*
X002737Y004698D01*
X002713Y004722D02*
X003439Y004722D01*
X003378Y004784D02*
X000494Y004784D01*
X000494Y004845D02*
X003316Y004845D01*
X003255Y004907D02*
X000494Y004907D01*
X000494Y004968D02*
X003193Y004968D01*
X003132Y005030D02*
X000494Y005030D01*
X000494Y005091D02*
X003070Y005091D01*
X003009Y005153D02*
X000494Y005153D01*
X000494Y005214D02*
X002947Y005214D01*
X002910Y005276D02*
X000494Y005276D01*
X000494Y005337D02*
X002910Y005337D01*
X002910Y005399D02*
X000494Y005399D01*
X000494Y005460D02*
X002910Y005460D01*
X002910Y005522D02*
X000494Y005522D01*
X000494Y005583D02*
X002910Y005583D01*
X002910Y005645D02*
X000494Y005645D01*
X000494Y005706D02*
X002910Y005706D01*
X002910Y005768D02*
X000494Y005768D01*
X000494Y005829D02*
X002910Y005829D01*
X002910Y005891D02*
X000494Y005891D01*
X000494Y005952D02*
X002910Y005952D01*
X002802Y006014D02*
X000494Y006014D01*
X000494Y006075D02*
X002772Y006075D01*
X002772Y006137D02*
X000494Y006137D01*
X000494Y006198D02*
X002386Y006198D01*
X002303Y006260D02*
X000494Y006260D01*
X000494Y006321D02*
X002263Y006321D01*
X002241Y006383D02*
X000494Y006383D01*
X000494Y006444D02*
X002241Y006444D01*
X002254Y006506D02*
X000494Y006506D01*
X000494Y006567D02*
X002281Y006567D01*
X002342Y006629D02*
X000494Y006629D01*
X000494Y006690D02*
X002772Y006690D01*
X002772Y006629D02*
X002635Y006629D01*
X002798Y006751D02*
X000494Y006751D01*
X002591Y006198D02*
X002772Y006198D01*
X001950Y004722D02*
X000494Y004722D01*
X000494Y004661D02*
X001926Y004661D01*
X001926Y004599D02*
X000494Y004599D01*
X000494Y004538D02*
X001696Y004538D01*
X001795Y004436D02*
X001544Y004185D01*
X001843Y004046D02*
X003733Y004046D01*
X003707Y004107D02*
X001868Y004107D01*
X001873Y004169D02*
X001931Y004169D01*
X001926Y004230D02*
X001873Y004230D01*
X001856Y004292D02*
X001926Y004292D01*
X001795Y004436D02*
X002331Y004436D01*
X002737Y004353D02*
X003768Y004353D01*
X003723Y004292D02*
X002737Y004292D01*
X002737Y004230D02*
X003698Y004230D01*
X003697Y004169D02*
X002732Y004169D01*
X002677Y003948D02*
X002644Y003957D01*
X002363Y003957D01*
X002363Y003641D01*
X002300Y003641D01*
X002300Y003957D01*
X002019Y003957D01*
X001985Y003948D01*
X001955Y003931D01*
X001931Y003906D01*
X001913Y003876D01*
X001904Y003843D01*
X001904Y003641D01*
X002300Y003641D01*
X002300Y003578D01*
X002363Y003578D01*
X002363Y003641D01*
X002758Y003641D01*
X002758Y003843D01*
X002749Y003876D01*
X002732Y003906D01*
X002707Y003931D01*
X002677Y003948D01*
X002715Y003923D02*
X008211Y003923D01*
X008150Y003861D02*
X002753Y003861D01*
X002758Y003800D02*
X008101Y003800D01*
X008101Y003813D02*
X008101Y003637D01*
X008571Y003637D01*
X008571Y004107D01*
X008395Y004107D01*
X008101Y003813D01*
X008101Y003738D02*
X002758Y003738D01*
X002758Y003677D02*
X008101Y003677D01*
X008101Y003554D02*
X002758Y003554D01*
X002758Y003578D02*
X002758Y003375D01*
X002749Y003342D01*
X002732Y003312D01*
X002707Y003287D01*
X002677Y003270D01*
X002644Y003261D01*
X002363Y003261D01*
X002363Y003578D01*
X002758Y003578D01*
X002758Y003492D02*
X007485Y003492D01*
X007466Y003485D02*
X007557Y003523D01*
X007656Y003523D01*
X007747Y003485D01*
X007817Y003415D01*
X007855Y003324D01*
X007855Y003225D01*
X007817Y003134D01*
X007749Y003066D01*
X007749Y002152D01*
X008123Y001778D01*
X008123Y001804D01*
X008404Y002085D01*
X008802Y002085D01*
X009083Y001804D01*
X009083Y001406D01*
X008802Y001125D01*
X008404Y001125D01*
X008123Y001406D01*
X008123Y001464D01*
X008036Y001464D01*
X007953Y001547D01*
X007465Y002035D01*
X007465Y003066D01*
X007397Y003134D01*
X007359Y003225D01*
X007359Y003324D01*
X007397Y003415D01*
X007466Y003485D01*
X007412Y003431D02*
X002758Y003431D01*
X002756Y003369D02*
X007378Y003369D01*
X007359Y003308D02*
X002728Y003308D01*
X002677Y003200D02*
X002644Y003209D01*
X002363Y003209D01*
X002363Y002893D01*
X002300Y002893D01*
X002300Y003209D01*
X002019Y003209D01*
X001985Y003200D01*
X001955Y003183D01*
X001931Y003158D01*
X001913Y003128D01*
X001904Y003095D01*
X001904Y002893D01*
X002300Y002893D01*
X002300Y002830D01*
X001904Y002830D01*
X001904Y002627D01*
X001913Y002594D01*
X001931Y002564D01*
X001955Y002539D01*
X001985Y002522D01*
X002019Y002513D01*
X002300Y002513D01*
X002300Y002830D01*
X002363Y002830D01*
X002363Y002893D01*
X002758Y002893D01*
X002758Y003095D01*
X002749Y003128D01*
X002732Y003158D01*
X002707Y003183D01*
X002677Y003200D01*
X002704Y003185D02*
X007375Y003185D01*
X007359Y003246D02*
X000494Y003246D01*
X000494Y003185D02*
X001959Y003185D01*
X001912Y003123D02*
X000494Y003123D01*
X000494Y003062D02*
X001904Y003062D01*
X001904Y003000D02*
X000494Y003000D01*
X000494Y002939D02*
X001904Y002939D01*
X001904Y002816D02*
X000494Y002816D01*
X000494Y002877D02*
X002300Y002877D01*
X002300Y002816D02*
X002363Y002816D01*
X002363Y002830D02*
X002363Y002513D01*
X002644Y002513D01*
X002677Y002522D01*
X002707Y002539D01*
X002732Y002564D01*
X002749Y002594D01*
X002758Y002627D01*
X002758Y002830D01*
X002363Y002830D01*
X002363Y002877D02*
X006926Y002877D01*
X006926Y002871D02*
X006963Y002780D01*
X007032Y002711D01*
X007032Y002224D01*
X006963Y002155D01*
X006926Y002064D01*
X006926Y001965D01*
X006963Y001874D01*
X007033Y001804D01*
X007124Y001767D01*
X007223Y001767D01*
X007314Y001804D01*
X007384Y001874D01*
X007422Y001965D01*
X007422Y002064D01*
X007384Y002155D01*
X007315Y002224D01*
X007315Y002711D01*
X007384Y002780D01*
X007422Y002871D01*
X007422Y002970D01*
X007384Y003061D01*
X007314Y003130D01*
X007223Y003168D01*
X007124Y003168D01*
X007033Y003130D01*
X006963Y003061D01*
X006926Y002970D01*
X006926Y002871D01*
X006948Y002816D02*
X002758Y002816D01*
X002758Y002754D02*
X006989Y002754D01*
X007032Y002693D02*
X002758Y002693D01*
X002758Y002631D02*
X007032Y002631D01*
X007032Y002570D02*
X002735Y002570D01*
X002672Y002361D02*
X001990Y002361D01*
X001926Y002297D01*
X001926Y002176D01*
X001855Y002176D01*
X001873Y002220D01*
X001873Y002351D01*
X001823Y002472D01*
X001730Y002564D01*
X001609Y002614D01*
X001478Y002614D01*
X001357Y002564D01*
X001265Y002472D01*
X001215Y002351D01*
X001215Y002220D01*
X001265Y002099D01*
X001357Y002006D01*
X001478Y001956D01*
X001609Y001956D01*
X001654Y001974D01*
X001736Y001893D01*
X001926Y001893D01*
X001926Y001772D01*
X001990Y001708D01*
X002672Y001708D01*
X002737Y001772D01*
X002737Y002297D01*
X002672Y002361D01*
X002709Y002324D02*
X003560Y002324D01*
X003560Y002263D02*
X002737Y002263D01*
X002737Y002201D02*
X003560Y002201D01*
X003560Y002140D02*
X002737Y002140D01*
X002737Y002078D02*
X003560Y002078D01*
X003560Y002017D02*
X002737Y002017D01*
X002737Y001955D02*
X003560Y001955D01*
X003560Y001928D02*
X003512Y001880D01*
X003444Y001908D01*
X003345Y001908D01*
X003254Y001871D01*
X003184Y001801D01*
X003146Y001710D01*
X003146Y001611D01*
X003184Y001520D01*
X003254Y001450D01*
X003345Y001412D01*
X003444Y001412D01*
X003535Y001450D01*
X003604Y001520D01*
X003641Y001608D01*
X003681Y001649D01*
X004149Y001649D01*
X004213Y001713D01*
X004213Y002395D01*
X004149Y002460D01*
X003624Y002460D01*
X003560Y002395D01*
X003560Y001928D01*
X003525Y001894D02*
X003479Y001894D01*
X003309Y001894D02*
X002737Y001894D01*
X002737Y001832D02*
X003215Y001832D01*
X003171Y001771D02*
X002735Y001771D01*
X002674Y001709D02*
X003146Y001709D01*
X003146Y001648D02*
X000494Y001648D01*
X000494Y001709D02*
X001989Y001709D01*
X001927Y001771D02*
X000494Y001771D01*
X000494Y001832D02*
X001926Y001832D01*
X001735Y001894D02*
X000494Y001894D01*
X000494Y001955D02*
X001673Y001955D01*
X001795Y002034D02*
X001544Y002285D01*
X001786Y002509D02*
X007032Y002509D01*
X007032Y002447D02*
X005018Y002447D01*
X005010Y002455D02*
X004980Y002472D01*
X004947Y002481D01*
X004745Y002481D01*
X004745Y002086D01*
X004682Y002086D01*
X004682Y002481D01*
X004479Y002481D01*
X004446Y002472D01*
X004416Y002455D01*
X004391Y002430D01*
X004374Y002400D01*
X004365Y002367D01*
X004365Y002086D01*
X004682Y002086D01*
X004682Y002023D01*
X004365Y002023D01*
X004365Y001741D01*
X004374Y001708D01*
X004391Y001678D01*
X004416Y001654D01*
X004446Y001636D01*
X004479Y001627D01*
X004682Y001627D01*
X004682Y002023D01*
X004745Y002023D01*
X004745Y002086D01*
X005061Y002086D01*
X005061Y002367D01*
X005052Y002400D01*
X005035Y002430D01*
X005010Y002455D01*
X005056Y002386D02*
X007032Y002386D01*
X007032Y002324D02*
X005061Y002324D01*
X005061Y002263D02*
X007032Y002263D01*
X007009Y002201D02*
X005061Y002201D01*
X005061Y002140D02*
X006957Y002140D01*
X006932Y002078D02*
X004745Y002078D01*
X004745Y002023D02*
X005061Y002023D01*
X005061Y001741D01*
X005052Y001708D01*
X005035Y001678D01*
X005010Y001654D01*
X004980Y001636D01*
X004947Y001627D01*
X004745Y001627D01*
X004745Y002023D01*
X004745Y002017D02*
X004682Y002017D01*
X004682Y002078D02*
X004213Y002078D01*
X004213Y002017D02*
X004365Y002017D01*
X004365Y001955D02*
X004213Y001955D01*
X004213Y001894D02*
X004365Y001894D01*
X004365Y001832D02*
X004213Y001832D01*
X004213Y001771D02*
X004365Y001771D01*
X004374Y001709D02*
X004209Y001709D01*
X004426Y001648D02*
X003680Y001648D01*
X003632Y001586D02*
X005627Y001586D01*
X005625Y001579D02*
X005625Y001298D01*
X005941Y001298D01*
X005941Y001235D01*
X005625Y001235D01*
X005625Y000954D01*
X005634Y000921D01*
X005651Y000891D01*
X005676Y000866D01*
X005706Y000849D01*
X005739Y000840D01*
X005941Y000840D01*
X005941Y001235D01*
X006004Y001235D01*
X006004Y000840D01*
X006207Y000840D01*
X006240Y000849D01*
X006270Y000866D01*
X006295Y000891D01*
X006312Y000921D01*
X006321Y000954D01*
X006321Y001235D01*
X006004Y001235D01*
X006004Y001298D01*
X005941Y001298D01*
X005941Y001693D01*
X005739Y001693D01*
X005706Y001684D01*
X005676Y001667D01*
X005651Y001643D01*
X005634Y001613D01*
X005625Y001579D01*
X005625Y001525D02*
X003606Y001525D01*
X003548Y001463D02*
X005625Y001463D01*
X005625Y001402D02*
X000494Y001402D01*
X000494Y001463D02*
X003241Y001463D01*
X003182Y001525D02*
X000494Y001525D01*
X000494Y001586D02*
X003156Y001586D01*
X003394Y001660D02*
X003493Y001660D01*
X003886Y002054D01*
X004213Y002140D02*
X004365Y002140D01*
X004365Y002201D02*
X004213Y002201D01*
X004213Y002263D02*
X004365Y002263D01*
X004365Y002324D02*
X004213Y002324D01*
X004213Y002386D02*
X004370Y002386D01*
X004408Y002447D02*
X004161Y002447D01*
X004682Y002447D02*
X004745Y002447D01*
X004745Y002386D02*
X004682Y002386D01*
X004682Y002324D02*
X004745Y002324D01*
X004745Y002263D02*
X004682Y002263D01*
X004682Y002201D02*
X004745Y002201D01*
X004745Y002140D02*
X004682Y002140D01*
X004682Y001955D02*
X004745Y001955D01*
X004745Y001894D02*
X004682Y001894D01*
X004682Y001832D02*
X004745Y001832D01*
X004745Y001771D02*
X004682Y001771D01*
X004682Y001709D02*
X004745Y001709D01*
X004745Y001648D02*
X004682Y001648D01*
X005000Y001648D02*
X005656Y001648D01*
X005941Y001648D02*
X006004Y001648D01*
X006004Y001693D02*
X006207Y001693D01*
X006240Y001684D01*
X006270Y001667D01*
X006295Y001643D01*
X006312Y001613D01*
X006321Y001579D01*
X006321Y001298D01*
X006004Y001298D01*
X006004Y001693D01*
X006004Y001586D02*
X005941Y001586D01*
X005941Y001525D02*
X006004Y001525D01*
X006004Y001463D02*
X005941Y001463D01*
X005941Y001402D02*
X006004Y001402D01*
X006004Y001340D02*
X005941Y001340D01*
X005941Y001279D02*
X000494Y001279D01*
X000494Y001340D02*
X005625Y001340D01*
X005625Y001217D02*
X000494Y001217D01*
X000494Y001156D02*
X005625Y001156D01*
X005625Y001094D02*
X000494Y001094D01*
X000494Y001033D02*
X005625Y001033D01*
X005625Y000971D02*
X000494Y000971D01*
X000494Y000910D02*
X005640Y000910D01*
X005708Y000848D02*
X000494Y000848D01*
X000494Y000787D02*
X010074Y000787D01*
X010074Y000848D02*
X006238Y000848D01*
X006306Y000910D02*
X006489Y000910D01*
X006473Y000926D02*
X006538Y000861D01*
X007062Y000861D01*
X007126Y000926D01*
X007126Y001125D01*
X007437Y001125D01*
X007506Y001056D01*
X007597Y001019D01*
X007696Y001019D01*
X007787Y001056D01*
X007856Y001126D01*
X007894Y001217D01*
X008312Y001217D01*
X008373Y001156D02*
X007869Y001156D01*
X007894Y001217D02*
X007894Y001316D01*
X007856Y001407D01*
X007787Y001477D01*
X007696Y001515D01*
X007597Y001515D01*
X007506Y001477D01*
X007437Y001408D01*
X007126Y001408D01*
X007126Y001608D01*
X007062Y001672D01*
X006538Y001672D01*
X006473Y001608D01*
X006473Y000926D01*
X006473Y000971D02*
X006321Y000971D01*
X006321Y001033D02*
X006473Y001033D01*
X006473Y001094D02*
X006321Y001094D01*
X006321Y001156D02*
X006473Y001156D01*
X006473Y001217D02*
X006321Y001217D01*
X006473Y001279D02*
X006004Y001279D01*
X006004Y001217D02*
X005941Y001217D01*
X005941Y001156D02*
X006004Y001156D01*
X006004Y001094D02*
X005941Y001094D01*
X005941Y001033D02*
X006004Y001033D01*
X006004Y000971D02*
X005941Y000971D01*
X005941Y000910D02*
X006004Y000910D01*
X006004Y000848D02*
X005941Y000848D01*
X006321Y001340D02*
X006473Y001340D01*
X006473Y001402D02*
X006321Y001402D01*
X006321Y001463D02*
X006473Y001463D01*
X006473Y001525D02*
X006321Y001525D01*
X006319Y001586D02*
X006473Y001586D01*
X006513Y001648D02*
X006290Y001648D01*
X006800Y001267D02*
X007646Y001267D01*
X007884Y001340D02*
X008189Y001340D01*
X008250Y001279D02*
X007894Y001279D01*
X007859Y001402D02*
X008127Y001402D01*
X008123Y001463D02*
X007800Y001463D01*
X007914Y001586D02*
X007126Y001586D01*
X007126Y001525D02*
X007975Y001525D01*
X008095Y001605D02*
X008603Y001605D01*
X008955Y001279D02*
X009123Y001279D01*
X009123Y001340D02*
X009017Y001340D01*
X009078Y001402D02*
X009123Y001402D01*
X009123Y001463D02*
X009083Y001463D01*
X009083Y001525D02*
X009123Y001525D01*
X009123Y001586D02*
X009083Y001586D01*
X009083Y001648D02*
X009123Y001648D01*
X009123Y001709D02*
X009083Y001709D01*
X009083Y001771D02*
X009123Y001771D01*
X009123Y001832D02*
X009055Y001832D01*
X008994Y001894D02*
X009123Y001894D01*
X009123Y001955D02*
X008932Y001955D01*
X008871Y002017D02*
X009123Y002017D01*
X009180Y002078D02*
X008809Y002078D01*
X008802Y002125D02*
X009083Y002406D01*
X009083Y002804D01*
X008802Y003085D01*
X008404Y003085D01*
X008123Y002804D01*
X008123Y002406D01*
X008404Y002125D01*
X008802Y002125D01*
X008816Y002140D02*
X009389Y002140D01*
X009328Y002201D02*
X008878Y002201D01*
X008939Y002263D02*
X009266Y002263D01*
X009205Y002324D02*
X009001Y002324D01*
X009062Y002386D02*
X009143Y002386D01*
X009123Y002447D02*
X009083Y002447D01*
X009083Y002509D02*
X009123Y002509D01*
X009123Y002570D02*
X009083Y002570D01*
X009083Y002631D02*
X009123Y002631D01*
X009123Y002693D02*
X009083Y002693D01*
X009083Y002754D02*
X009123Y002754D01*
X009134Y002816D02*
X009071Y002816D01*
X009010Y002877D02*
X009196Y002877D01*
X009257Y002939D02*
X008948Y002939D01*
X008887Y003000D02*
X009319Y003000D01*
X009380Y003062D02*
X008825Y003062D01*
X008830Y003123D02*
X010074Y003123D01*
X010074Y003062D02*
X009825Y003062D01*
X009887Y003000D02*
X010074Y003000D01*
X010074Y002939D02*
X009948Y002939D01*
X010010Y002877D02*
X010074Y002877D01*
X010071Y002816D02*
X010074Y002816D01*
X010074Y003185D02*
X009862Y003185D01*
X009923Y003246D02*
X010074Y003246D01*
X010074Y003308D02*
X009985Y003308D01*
X010046Y003369D02*
X010074Y003369D01*
X009344Y003185D02*
X008892Y003185D01*
X008953Y003246D02*
X009283Y003246D01*
X009221Y003308D02*
X009015Y003308D01*
X009076Y003369D02*
X009160Y003369D01*
X009123Y003431D02*
X009104Y003431D01*
X009104Y003492D02*
X009123Y003492D01*
X009123Y003554D02*
X009104Y003554D01*
X008634Y003554D02*
X008571Y003554D01*
X008571Y003615D02*
X002363Y003615D01*
X002363Y003554D02*
X002300Y003554D01*
X002300Y003578D02*
X002300Y003261D01*
X002019Y003261D01*
X001985Y003270D01*
X001955Y003287D01*
X001931Y003312D01*
X001913Y003342D01*
X001904Y003375D01*
X001904Y003578D01*
X002300Y003578D01*
X002300Y003615D02*
X000494Y003615D01*
X000494Y003554D02*
X001904Y003554D01*
X001904Y003492D02*
X000494Y003492D01*
X000494Y003431D02*
X001904Y003431D01*
X001906Y003369D02*
X000494Y003369D01*
X000494Y003308D02*
X001935Y003308D01*
X002300Y003308D02*
X002363Y003308D01*
X002363Y003369D02*
X002300Y003369D01*
X002300Y003431D02*
X002363Y003431D01*
X002363Y003492D02*
X002300Y003492D01*
X002300Y003677D02*
X002363Y003677D01*
X002363Y003738D02*
X002300Y003738D01*
X002300Y003800D02*
X002363Y003800D01*
X002363Y003861D02*
X002300Y003861D01*
X002300Y003923D02*
X002363Y003923D01*
X001947Y003923D02*
X001747Y003923D01*
X001809Y003984D02*
X003790Y003984D01*
X004100Y003984D02*
X008273Y003984D01*
X008334Y004046D02*
X004158Y004046D01*
X002750Y003123D02*
X007026Y003123D01*
X006965Y003062D02*
X002758Y003062D01*
X002758Y003000D02*
X006939Y003000D01*
X006926Y002939D02*
X002758Y002939D01*
X002363Y002939D02*
X002300Y002939D01*
X002300Y003000D02*
X002363Y003000D01*
X002363Y003062D02*
X002300Y003062D01*
X002300Y003123D02*
X002363Y003123D01*
X002363Y003185D02*
X002300Y003185D01*
X002300Y002754D02*
X002363Y002754D01*
X002363Y002693D02*
X002300Y002693D01*
X002300Y002631D02*
X002363Y002631D01*
X002363Y002570D02*
X002300Y002570D01*
X001927Y002570D02*
X001717Y002570D01*
X001833Y002447D02*
X003612Y002447D01*
X003560Y002386D02*
X001859Y002386D01*
X001873Y002324D02*
X001953Y002324D01*
X001926Y002263D02*
X001873Y002263D01*
X001865Y002201D02*
X001926Y002201D01*
X001795Y002034D02*
X002331Y002034D01*
X001904Y002631D02*
X000494Y002631D01*
X000494Y002570D02*
X001371Y002570D01*
X001301Y002509D02*
X000494Y002509D01*
X000494Y002447D02*
X001254Y002447D01*
X001229Y002386D02*
X000494Y002386D01*
X000494Y002324D02*
X001215Y002324D01*
X001215Y002263D02*
X000494Y002263D01*
X000494Y002201D02*
X001222Y002201D01*
X001248Y002140D02*
X000494Y002140D01*
X000494Y002078D02*
X001285Y002078D01*
X001347Y002017D02*
X000494Y002017D01*
X000494Y002693D02*
X001904Y002693D01*
X001904Y002754D02*
X000494Y002754D01*
X000494Y003677D02*
X001904Y003677D01*
X001904Y003738D02*
X000494Y003738D01*
X000494Y003800D02*
X001904Y003800D01*
X001909Y003861D02*
X001623Y003861D01*
X001465Y003861D02*
X000494Y003861D01*
X000494Y003923D02*
X001340Y003923D01*
X001279Y003984D02*
X000494Y003984D01*
X000494Y004046D02*
X001245Y004046D01*
X001220Y004107D02*
X000494Y004107D01*
X000494Y004169D02*
X001215Y004169D01*
X001215Y004230D02*
X000494Y004230D01*
X000494Y004292D02*
X001232Y004292D01*
X001257Y004353D02*
X000494Y004353D01*
X000494Y004415D02*
X001308Y004415D01*
X001386Y004476D02*
X000494Y004476D01*
X000494Y000725D02*
X010074Y000725D01*
X010074Y000664D02*
X000494Y000664D01*
X005052Y001709D02*
X007791Y001709D01*
X007852Y001648D02*
X007086Y001648D01*
X007115Y001771D02*
X005061Y001771D01*
X005061Y001832D02*
X007006Y001832D01*
X006955Y001894D02*
X005061Y001894D01*
X005061Y001955D02*
X006930Y001955D01*
X006926Y002017D02*
X005061Y002017D01*
X007174Y002015D02*
X007174Y002920D01*
X007399Y002816D02*
X007465Y002816D01*
X007465Y002877D02*
X007422Y002877D01*
X007422Y002939D02*
X007465Y002939D01*
X007465Y003000D02*
X007409Y003000D01*
X007383Y003062D02*
X007465Y003062D01*
X007407Y003123D02*
X007321Y003123D01*
X007607Y003275D02*
X007607Y002093D01*
X008095Y001605D01*
X008069Y001832D02*
X008151Y001832D01*
X008212Y001894D02*
X008007Y001894D01*
X007946Y001955D02*
X008274Y001955D01*
X008335Y002017D02*
X007884Y002017D01*
X007823Y002078D02*
X008397Y002078D01*
X008389Y002140D02*
X007761Y002140D01*
X007749Y002201D02*
X008328Y002201D01*
X008266Y002263D02*
X007749Y002263D01*
X007749Y002324D02*
X008205Y002324D01*
X008143Y002386D02*
X007749Y002386D01*
X007749Y002447D02*
X008123Y002447D01*
X008123Y002509D02*
X007749Y002509D01*
X007749Y002570D02*
X008123Y002570D01*
X008123Y002631D02*
X007749Y002631D01*
X007749Y002693D02*
X008123Y002693D01*
X008123Y002754D02*
X007749Y002754D01*
X007749Y002816D02*
X008134Y002816D01*
X008196Y002877D02*
X007749Y002877D01*
X007749Y002939D02*
X008257Y002939D01*
X008319Y003000D02*
X007749Y003000D01*
X007749Y003062D02*
X008380Y003062D01*
X008375Y003123D02*
X007806Y003123D01*
X007838Y003185D02*
X008314Y003185D01*
X008252Y003246D02*
X007855Y003246D01*
X007855Y003308D02*
X008191Y003308D01*
X008129Y003369D02*
X007836Y003369D01*
X007801Y003431D02*
X008101Y003431D01*
X008101Y003492D02*
X007729Y003492D01*
X007465Y002754D02*
X007359Y002754D01*
X007315Y002693D02*
X007465Y002693D01*
X007465Y002631D02*
X007315Y002631D01*
X007315Y002570D02*
X007465Y002570D01*
X007465Y002509D02*
X007315Y002509D01*
X007315Y002447D02*
X007465Y002447D01*
X007465Y002386D02*
X007315Y002386D01*
X007315Y002324D02*
X007465Y002324D01*
X007465Y002263D02*
X007315Y002263D01*
X007338Y002201D02*
X007465Y002201D01*
X007465Y002140D02*
X007390Y002140D01*
X007416Y002078D02*
X007465Y002078D01*
X007483Y002017D02*
X007422Y002017D01*
X007418Y001955D02*
X007545Y001955D01*
X007606Y001894D02*
X007392Y001894D01*
X007342Y001832D02*
X007668Y001832D01*
X007729Y001771D02*
X007233Y001771D01*
X007126Y001463D02*
X007492Y001463D01*
X007468Y001094D02*
X007126Y001094D01*
X007126Y001033D02*
X007563Y001033D01*
X007729Y001033D02*
X010074Y001033D01*
X010074Y001094D02*
X007824Y001094D01*
X007126Y000971D02*
X010074Y000971D01*
X010074Y000910D02*
X007110Y000910D01*
X008832Y001156D02*
X009157Y001156D01*
X009123Y001217D02*
X008894Y001217D01*
X010049Y001156D02*
X010074Y001156D01*
X010074Y002078D02*
X010026Y002078D01*
X010074Y002140D02*
X009816Y002140D01*
X009878Y002201D02*
X010074Y002201D01*
X010074Y002263D02*
X009939Y002263D01*
X010001Y002324D02*
X010074Y002324D01*
X010074Y002386D02*
X010062Y002386D01*
X008634Y003123D02*
X008571Y003123D01*
X008571Y003185D02*
X008634Y003185D01*
X008634Y003246D02*
X008571Y003246D01*
X008571Y003308D02*
X008634Y003308D01*
X008634Y003369D02*
X008571Y003369D01*
X008571Y003431D02*
X008634Y003431D01*
X008634Y003492D02*
X008571Y003492D01*
X008571Y003677D02*
X008634Y003677D01*
X008634Y003738D02*
X008571Y003738D01*
X008571Y003800D02*
X008634Y003800D01*
X008634Y003861D02*
X008571Y003861D01*
X008571Y003923D02*
X008634Y003923D01*
X008634Y003984D02*
X008571Y003984D01*
X008571Y004046D02*
X008634Y004046D01*
X008179Y006567D02*
X008171Y006567D01*
X007843Y006908D02*
X007438Y006908D01*
X007174Y007172D01*
X006682Y007172D01*
X006859Y007192D01*
X007303Y007243D02*
X007500Y007243D01*
X007384Y007182D02*
X007364Y007182D01*
X007255Y006874D02*
X007209Y006874D01*
X007202Y006690D02*
X007328Y006690D01*
X007390Y006629D02*
X007263Y006629D01*
X006452Y008781D02*
X006300Y008781D01*
X006300Y008842D02*
X006452Y008842D01*
X006452Y008904D02*
X006300Y008904D01*
X006300Y008965D02*
X006375Y008965D01*
X006307Y009027D02*
X006243Y009027D01*
X006223Y009088D02*
X006274Y009088D01*
X006256Y009150D02*
X006241Y009150D01*
X006241Y009211D02*
X006256Y009211D01*
X006274Y009273D02*
X006223Y009273D01*
X006189Y009334D02*
X006308Y009334D01*
X006377Y009396D02*
X006120Y009396D01*
X006504Y009180D02*
X007213Y009180D01*
X005646Y008904D02*
X005167Y008904D01*
X005264Y008842D02*
X005646Y008842D01*
X010074Y010011D02*
X000494Y010011D01*
X000494Y010072D02*
X010074Y010072D01*
X010074Y010134D02*
X000494Y010134D01*
D19*
X003630Y008865D03*
X004615Y008235D03*
X004457Y007802D03*
X005087Y007763D03*
X005717Y007684D03*
X006150Y007763D03*
X005087Y008668D03*
X005205Y009101D03*
X005993Y009180D03*
X006504Y009180D03*
X007252Y009534D03*
X007292Y005912D03*
X005717Y004180D03*
X004536Y004495D03*
X003945Y004180D03*
X003552Y003865D03*
X003512Y004456D03*
X004182Y005086D03*
X004536Y005086D03*
X002528Y005479D03*
X002489Y006424D03*
X002607Y006975D03*
X006938Y003786D03*
X007607Y003275D03*
X007174Y002920D03*
X007174Y002015D03*
X007646Y001267D03*
X005678Y001778D03*
X005323Y000873D03*
X003394Y001660D03*
D20*
X003945Y004180D02*
X003945Y004456D01*
X003079Y005322D01*
X003079Y006365D01*
X003099Y006385D01*
X003060Y006424D01*
X002489Y006424D01*
X003965Y007802D02*
X004457Y007802D01*
X005087Y007763D02*
X005087Y007192D01*
X005993Y008491D02*
X005973Y008629D01*
X005126Y008629D01*
X005087Y008668D01*
X005993Y008491D02*
X005993Y009180D01*
M02*
