G75*
G70*
%OFA0B0*%
%FSLAX24Y24*%
%IPPOS*%
%LPD*%
%AMOC8*
5,1,8,0,0,1.08239X$1,22.5*
%
%ADD10C,0.0000*%
%ADD11R,0.0500X0.0220*%
%ADD12R,0.0220X0.0500*%
%ADD13C,0.0438*%
%ADD14C,0.0518*%
%ADD15C,0.0478*%
%ADD16R,0.0740X0.0740*%
%ADD17OC8,0.0740*%
%ADD18R,0.0472X0.0472*%
%ADD19R,0.0433X0.0591*%
%ADD20R,0.0591X0.0433*%
%ADD21R,0.0137X0.0550*%
%ADD22R,0.0787X0.0157*%
%ADD23R,0.0748X0.0709*%
%ADD24C,0.0063*%
%ADD25C,0.0276*%
%ADD26C,0.0118*%
D10*
X000363Y000479D02*
X000363Y010322D01*
X010205Y010322D01*
X010205Y000479D01*
X000363Y000479D01*
D11*
X003003Y002920D03*
X003003Y003235D03*
X003003Y003550D03*
X003003Y003865D03*
X003003Y004180D03*
X003003Y004495D03*
X003003Y004810D03*
X003003Y005125D03*
X006383Y005125D03*
X006383Y004810D03*
X006383Y004495D03*
X006383Y004180D03*
X006383Y003865D03*
X006383Y003550D03*
X006383Y003235D03*
X006383Y002920D03*
D12*
X005796Y002333D03*
X005481Y002333D03*
X005166Y002333D03*
X004851Y002333D03*
X004536Y002333D03*
X004221Y002333D03*
X003906Y002333D03*
X003591Y002333D03*
X003591Y005713D03*
X003906Y005713D03*
X004221Y005713D03*
X004536Y005713D03*
X004851Y005713D03*
X005166Y005713D03*
X005481Y005713D03*
X005796Y005713D03*
D13*
X001544Y004185D03*
X001544Y002285D03*
D14*
X008840Y005566D02*
X009358Y005566D01*
X009358Y006566D02*
X008840Y006566D01*
X008840Y007566D02*
X009358Y007566D01*
X009358Y008566D02*
X008840Y008566D01*
X008840Y009566D02*
X009358Y009566D01*
D15*
X008082Y007908D02*
X007604Y007908D01*
X007604Y006908D02*
X008082Y006908D01*
D16*
X009603Y001605D03*
D17*
X008603Y001605D03*
X008603Y002605D03*
X009603Y002605D03*
X009603Y003605D03*
X008603Y003605D03*
D18*
X007075Y001267D03*
X006249Y001267D03*
X004713Y001267D03*
X003886Y001267D03*
D19*
X007075Y004613D03*
X007902Y004613D03*
X007902Y005322D03*
X007075Y005322D03*
D20*
X007843Y008727D03*
X007843Y009554D03*
D21*
X006751Y009793D03*
X006495Y009793D03*
X006239Y009793D03*
X005983Y009793D03*
X005727Y009793D03*
X005471Y009793D03*
X005215Y009793D03*
X004959Y009793D03*
X004703Y009793D03*
X004447Y009793D03*
X004191Y009793D03*
X003936Y009793D03*
X003680Y009793D03*
X003424Y009793D03*
X003424Y006914D03*
X003680Y006914D03*
X003936Y006914D03*
X004191Y006914D03*
X004447Y006914D03*
X004703Y006914D03*
X004959Y006914D03*
X005215Y006914D03*
X005471Y006914D03*
X005727Y006914D03*
X005983Y006914D03*
X006239Y006914D03*
X006495Y006914D03*
X006751Y006914D03*
D22*
X002371Y007448D03*
X002371Y007704D03*
X002371Y007960D03*
X002371Y008215D03*
X002371Y008471D03*
D23*
X001209Y009534D03*
X001209Y006385D03*
D24*
X000725Y006383D02*
X000494Y006383D01*
X000494Y006444D02*
X000725Y006444D01*
X000725Y006506D02*
X000494Y006506D01*
X000494Y006567D02*
X000725Y006567D01*
X000725Y006629D02*
X000494Y006629D01*
X000494Y006690D02*
X000725Y006690D01*
X000725Y006751D02*
X000494Y006751D01*
X000494Y006813D02*
X000753Y006813D01*
X000725Y006785D02*
X000789Y006849D01*
X001629Y006849D01*
X001693Y006785D01*
X001693Y005985D01*
X001629Y005920D01*
X000789Y005920D01*
X000725Y005985D01*
X000725Y006785D01*
X000494Y006874D02*
X003245Y006874D01*
X003245Y006813D02*
X001665Y006813D01*
X001693Y006751D02*
X003245Y006751D01*
X003245Y006690D02*
X001693Y006690D01*
X001693Y006629D02*
X002342Y006629D01*
X002348Y006634D02*
X002278Y006565D01*
X002241Y006473D01*
X002241Y006375D01*
X002278Y006284D01*
X002348Y006214D01*
X002439Y006176D01*
X002538Y006176D01*
X002629Y006214D01*
X002699Y006284D01*
X002703Y006294D01*
X004724Y006294D01*
X004823Y006393D01*
X004873Y006443D01*
X004873Y006508D01*
X004873Y006507D01*
X004956Y006507D01*
X004956Y006911D01*
X004962Y006911D01*
X004962Y006507D01*
X005045Y006507D01*
X005078Y006516D01*
X005100Y006529D01*
X005101Y006529D01*
X005329Y006529D01*
X005343Y006542D01*
X005357Y006529D01*
X005585Y006529D01*
X005599Y006542D01*
X005613Y006529D01*
X005841Y006529D01*
X005841Y006529D01*
X005864Y006516D01*
X005897Y006507D01*
X005980Y006507D01*
X005980Y006911D01*
X005986Y006911D01*
X005986Y006917D01*
X006183Y006917D01*
X006236Y006917D01*
X006236Y007320D01*
X006153Y007320D01*
X006119Y007311D01*
X006111Y007306D01*
X006102Y007311D01*
X006069Y007320D01*
X005986Y007320D01*
X005986Y006917D01*
X005980Y006917D01*
X005980Y007320D01*
X005897Y007320D01*
X005864Y007311D01*
X005841Y007299D01*
X005613Y007299D01*
X005599Y007285D01*
X005585Y007299D01*
X005357Y007299D01*
X005343Y007285D01*
X005329Y007299D01*
X005101Y007299D01*
X005100Y007299D01*
X005078Y007311D01*
X005045Y007320D01*
X004962Y007320D01*
X004962Y006917D01*
X004956Y006917D01*
X004956Y007320D01*
X004884Y007320D01*
X005078Y007515D01*
X005136Y007515D01*
X005228Y007552D01*
X005297Y007622D01*
X005335Y007713D01*
X005335Y007812D01*
X005297Y007903D01*
X005256Y007944D01*
X005256Y008487D01*
X005297Y008528D01*
X005335Y008619D01*
X005335Y008718D01*
X005297Y008809D01*
X005228Y008879D01*
X005136Y008916D01*
X005038Y008916D01*
X004947Y008879D01*
X004906Y008838D01*
X004308Y008838D01*
X004111Y008641D01*
X002830Y008641D01*
X002810Y008660D01*
X001931Y008660D01*
X001867Y008596D01*
X000494Y008596D01*
X000494Y008535D02*
X001867Y008535D01*
X001867Y008596D02*
X001867Y008347D01*
X001870Y008343D01*
X001867Y008340D01*
X001867Y008091D01*
X001870Y008088D01*
X001867Y008084D01*
X001867Y007835D01*
X001870Y007832D01*
X001867Y007828D01*
X001867Y007599D01*
X001854Y007577D01*
X001845Y007544D01*
X001845Y007456D01*
X002363Y007456D01*
X002363Y007440D01*
X002378Y007440D01*
X002378Y007238D01*
X002782Y007238D01*
X002815Y007246D01*
X002845Y007264D01*
X002870Y007288D01*
X002887Y007318D01*
X002896Y007352D01*
X002896Y007440D01*
X002378Y007440D01*
X002378Y007456D01*
X002896Y007456D01*
X002896Y007544D01*
X002887Y007577D01*
X002875Y007599D01*
X002875Y007818D01*
X003217Y007818D01*
X003292Y007743D01*
X003292Y007281D01*
X003245Y007235D01*
X003245Y006633D01*
X002631Y006633D01*
X002629Y006634D01*
X002538Y006672D01*
X002439Y006672D01*
X002348Y006634D01*
X002281Y006567D02*
X001693Y006567D01*
X001693Y006506D02*
X002254Y006506D01*
X002241Y006444D02*
X001693Y006444D01*
X001693Y006383D02*
X002241Y006383D01*
X002263Y006321D02*
X001693Y006321D01*
X001693Y006260D02*
X002303Y006260D01*
X002386Y006198D02*
X001693Y006198D01*
X001693Y006137D02*
X004087Y006137D01*
X004079Y006129D02*
X004119Y006168D01*
X004202Y006251D01*
X005225Y006251D01*
X005300Y006325D01*
X005383Y006408D01*
X006761Y006408D01*
X006796Y006443D01*
X006796Y006529D01*
X006636Y006529D01*
X006623Y006542D01*
X006609Y006529D01*
X006380Y006529D01*
X006380Y006529D01*
X006358Y006516D01*
X006325Y006507D01*
X006241Y006507D01*
X006241Y006911D01*
X006236Y006911D01*
X006236Y006507D01*
X006153Y006507D01*
X006119Y006516D01*
X006111Y006521D01*
X006102Y006516D01*
X006069Y006507D01*
X005986Y006507D01*
X005986Y006911D01*
X006236Y006911D01*
X006236Y006917D01*
X006241Y006917D01*
X006241Y007320D01*
X006325Y007320D01*
X006358Y007311D01*
X006380Y007299D01*
X006380Y007299D01*
X006609Y007299D01*
X006623Y007285D01*
X006636Y007299D01*
X006796Y007299D01*
X006796Y009161D01*
X006752Y009204D01*
X006752Y009131D01*
X006715Y009040D01*
X006645Y008970D01*
X006554Y008932D01*
X006455Y008932D01*
X006364Y008970D01*
X006294Y009040D01*
X006256Y009131D01*
X006256Y009229D01*
X006294Y009321D01*
X006363Y009389D01*
X006363Y009417D01*
X006353Y009407D01*
X006152Y009407D01*
X006152Y009371D01*
X006203Y009321D01*
X006241Y009229D01*
X006241Y009131D01*
X006203Y009040D01*
X006133Y008970D01*
X006042Y008932D01*
X005943Y008932D01*
X005859Y008967D01*
X005859Y007893D01*
X005927Y007824D01*
X005965Y007733D01*
X005965Y007635D01*
X005927Y007543D01*
X005858Y007474D01*
X005766Y007436D01*
X005668Y007436D01*
X005577Y007474D01*
X005507Y007543D01*
X005469Y007635D01*
X005469Y007733D01*
X005507Y007824D01*
X005575Y007893D01*
X005575Y009407D01*
X005357Y009407D01*
X005356Y009408D01*
X005334Y009395D01*
X005301Y009386D01*
X005218Y009386D01*
X005218Y009790D01*
X005212Y009790D01*
X005212Y009386D01*
X005129Y009386D01*
X005096Y009395D01*
X005074Y009408D01*
X005073Y009407D01*
X004845Y009407D01*
X004831Y009421D01*
X004817Y009407D01*
X004589Y009407D01*
X004575Y009421D01*
X004562Y009407D01*
X004333Y009407D01*
X004319Y009421D01*
X004306Y009407D01*
X004077Y009407D01*
X004063Y009421D01*
X004050Y009407D01*
X003821Y009407D01*
X003808Y009421D01*
X003794Y009407D01*
X003565Y009407D01*
X003552Y009421D01*
X003538Y009407D01*
X003310Y009407D01*
X003245Y009472D01*
X003245Y010113D01*
X003310Y010178D01*
X003538Y010178D01*
X003552Y010164D01*
X003565Y010178D01*
X003794Y010178D01*
X003808Y010164D01*
X003821Y010178D01*
X004050Y010178D01*
X004063Y010164D01*
X004077Y010178D01*
X004306Y010178D01*
X004319Y010164D01*
X004333Y010178D01*
X004562Y010178D01*
X004575Y010164D01*
X004589Y010178D01*
X004817Y010178D01*
X004831Y010164D01*
X004845Y010178D01*
X005073Y010178D01*
X005074Y010177D01*
X005096Y010190D01*
X005096Y010190D01*
X000494Y010190D01*
X000494Y000611D01*
X010074Y000611D01*
X010074Y001180D01*
X010019Y001125D01*
X009187Y001125D01*
X009123Y001190D01*
X009123Y001885D01*
X009036Y001971D01*
X008916Y001971D01*
X009083Y001804D01*
X009083Y001406D01*
X008802Y001125D01*
X008404Y001125D01*
X008123Y001406D01*
X008123Y001804D01*
X008292Y001973D01*
X008253Y002014D01*
X008213Y002054D01*
X008213Y002057D01*
X007940Y002345D01*
X006288Y002345D01*
X006133Y002191D01*
X006016Y002191D01*
X006016Y002037D01*
X005951Y001972D01*
X005640Y001972D01*
X005638Y001974D01*
X005636Y001972D01*
X005325Y001972D01*
X005323Y001974D01*
X005322Y001972D01*
X005010Y001972D01*
X005008Y001974D01*
X005007Y001972D01*
X004695Y001972D01*
X004693Y001974D01*
X004692Y001972D01*
X004380Y001972D01*
X004378Y001974D01*
X004377Y001972D01*
X004065Y001972D01*
X004063Y001974D01*
X004062Y001972D01*
X003750Y001972D01*
X003749Y001974D01*
X003747Y001972D01*
X003435Y001972D01*
X003371Y002037D01*
X003371Y002500D01*
X003260Y002389D01*
X003260Y001873D01*
X003345Y001908D01*
X003444Y001908D01*
X003535Y001871D01*
X003564Y001841D01*
X004673Y001841D01*
X004756Y001758D01*
X004855Y001660D01*
X004855Y001613D01*
X004995Y001613D01*
X005060Y001549D01*
X005060Y000985D01*
X004995Y000920D01*
X004431Y000920D01*
X004367Y000985D01*
X004367Y001549D01*
X004376Y001558D01*
X004223Y001558D01*
X004233Y001549D01*
X004233Y000985D01*
X004168Y000920D01*
X003604Y000920D01*
X003540Y000985D01*
X003540Y001125D01*
X003296Y001125D01*
X002977Y001444D01*
X002977Y002506D01*
X003170Y002700D01*
X002708Y002700D01*
X002643Y002765D01*
X002643Y002778D01*
X001917Y002778D01*
X001711Y002572D01*
X001730Y002564D01*
X001823Y002472D01*
X001873Y002351D01*
X001873Y002220D01*
X001823Y002099D01*
X001730Y002006D01*
X001609Y001956D01*
X001478Y001956D01*
X001357Y002006D01*
X001265Y002099D01*
X001215Y002220D01*
X001215Y002351D01*
X001265Y002472D01*
X001357Y002564D01*
X001402Y002583D01*
X001402Y002664D01*
X001800Y003062D01*
X002643Y003062D01*
X000494Y003062D01*
X000494Y003123D02*
X001809Y003123D01*
X001839Y003093D02*
X002643Y003093D01*
X002643Y003080D01*
X002645Y003078D01*
X002643Y003076D01*
X002643Y003062D01*
X002653Y002754D02*
X001893Y002754D01*
X001832Y002693D02*
X003163Y002693D01*
X003102Y002631D02*
X001770Y002631D01*
X001717Y002570D02*
X003040Y002570D01*
X002979Y002509D02*
X001786Y002509D01*
X001833Y002447D02*
X002977Y002447D01*
X002977Y002386D02*
X001859Y002386D01*
X001873Y002324D02*
X002977Y002324D01*
X002977Y002263D02*
X001873Y002263D01*
X001865Y002201D02*
X002977Y002201D01*
X002977Y002140D02*
X001840Y002140D01*
X001802Y002078D02*
X002977Y002078D01*
X002977Y002017D02*
X001741Y002017D01*
X001544Y002285D02*
X001544Y002605D01*
X001859Y002920D01*
X003003Y002920D01*
X003003Y003235D02*
X001898Y003235D01*
X001544Y003590D01*
X001544Y004185D01*
X001780Y004415D02*
X002622Y004415D01*
X002622Y004368D02*
X002631Y004334D01*
X002643Y004313D01*
X002643Y004047D01*
X002631Y004026D01*
X002622Y003992D01*
X002622Y003889D01*
X002980Y003889D01*
X002980Y003842D01*
X002622Y003842D01*
X002622Y003738D01*
X002631Y003704D01*
X002643Y003683D01*
X002643Y003394D01*
X002645Y003393D01*
X002643Y003391D01*
X002643Y003377D01*
X001957Y003377D01*
X001686Y003648D01*
X001686Y003887D01*
X001730Y003906D01*
X001823Y003999D01*
X001873Y004120D01*
X001873Y004251D01*
X001823Y004372D01*
X001730Y004464D01*
X001609Y004514D01*
X001478Y004514D01*
X001357Y004464D01*
X001265Y004372D01*
X001215Y004251D01*
X001215Y004120D01*
X001265Y003999D01*
X001357Y003906D01*
X001402Y003887D01*
X001402Y003531D01*
X001485Y003448D01*
X001839Y003093D01*
X001748Y003185D02*
X000494Y003185D01*
X000494Y003246D02*
X001686Y003246D01*
X001625Y003308D02*
X000494Y003308D01*
X000494Y003369D02*
X001563Y003369D01*
X001502Y003431D02*
X000494Y003431D01*
X000494Y003492D02*
X001440Y003492D01*
X001402Y003554D02*
X000494Y003554D01*
X000494Y003615D02*
X001402Y003615D01*
X001402Y003677D02*
X000494Y003677D01*
X000494Y003738D02*
X001402Y003738D01*
X001402Y003800D02*
X000494Y003800D01*
X000494Y003861D02*
X001402Y003861D01*
X001340Y003923D02*
X000494Y003923D01*
X000494Y003984D02*
X001279Y003984D01*
X001245Y004046D02*
X000494Y004046D01*
X000494Y004107D02*
X001220Y004107D01*
X001215Y004169D02*
X000494Y004169D01*
X000494Y004230D02*
X001215Y004230D01*
X001232Y004292D02*
X000494Y004292D01*
X000494Y004353D02*
X001257Y004353D01*
X001308Y004415D02*
X000494Y004415D01*
X000494Y004476D02*
X001386Y004476D01*
X001702Y004476D02*
X002980Y004476D01*
X002980Y004472D02*
X002622Y004472D01*
X002622Y004368D01*
X002626Y004353D02*
X001831Y004353D01*
X001856Y004292D02*
X002643Y004292D01*
X002643Y004230D02*
X001873Y004230D01*
X001873Y004169D02*
X002643Y004169D01*
X002643Y004107D02*
X001868Y004107D01*
X001843Y004046D02*
X002642Y004046D01*
X002622Y003984D02*
X001809Y003984D01*
X001747Y003923D02*
X002622Y003923D01*
X002622Y003800D02*
X001686Y003800D01*
X001686Y003861D02*
X002980Y003861D01*
X003027Y003861D02*
X003776Y003861D01*
X003776Y003800D02*
X003385Y003800D01*
X003385Y003842D02*
X003027Y003842D01*
X003027Y003889D01*
X003385Y003889D01*
X003385Y003992D01*
X003380Y004011D01*
X003764Y004011D01*
X003776Y003999D01*
X003776Y003778D01*
X003718Y003719D01*
X003380Y003719D01*
X003385Y003738D01*
X003385Y003842D01*
X003385Y003923D02*
X003776Y003923D01*
X003776Y003984D02*
X003385Y003984D01*
X003385Y003738D02*
X003737Y003738D01*
X003434Y003550D02*
X003434Y002763D01*
X003119Y002448D01*
X003119Y001503D01*
X003355Y001267D01*
X003886Y001267D01*
X003540Y001094D02*
X000494Y001094D01*
X000494Y001033D02*
X003540Y001033D01*
X003553Y000971D02*
X000494Y000971D01*
X000494Y000910D02*
X010074Y000910D01*
X010074Y000971D02*
X007408Y000971D01*
X007422Y000985D02*
X007422Y001125D01*
X007437Y001125D01*
X007506Y001056D01*
X007597Y001019D01*
X007696Y001019D01*
X007787Y001056D01*
X007856Y001126D01*
X007894Y001217D01*
X008312Y001217D01*
X008373Y001156D02*
X007869Y001156D01*
X007894Y001217D02*
X007894Y001316D01*
X007856Y001407D01*
X007787Y001477D01*
X007696Y001515D01*
X007597Y001515D01*
X007506Y001477D01*
X007437Y001408D01*
X007422Y001408D01*
X007422Y001549D01*
X007357Y001613D01*
X006793Y001613D01*
X006729Y001549D01*
X006729Y000985D01*
X006793Y000920D01*
X007357Y000920D01*
X007422Y000985D01*
X007422Y001033D02*
X007563Y001033D01*
X007468Y001094D02*
X007422Y001094D01*
X007646Y001267D02*
X007075Y001267D01*
X007422Y001463D02*
X007492Y001463D01*
X007422Y001525D02*
X008123Y001525D01*
X008123Y001586D02*
X007384Y001586D01*
X007314Y001804D02*
X007223Y001767D01*
X007126Y001767D01*
X007075Y001715D01*
X006406Y001715D01*
X006390Y001700D01*
X006390Y001613D01*
X006530Y001613D01*
X006595Y001549D01*
X006595Y000985D01*
X006530Y000920D01*
X005967Y000920D01*
X005902Y000985D01*
X005902Y001549D01*
X005967Y001613D01*
X006107Y001613D01*
X006107Y001817D01*
X006205Y001916D01*
X006288Y001999D01*
X006926Y001999D01*
X006926Y002064D01*
X006963Y002155D01*
X007033Y002225D01*
X007124Y002263D01*
X006205Y002263D01*
X006266Y002324D02*
X007960Y002324D01*
X008018Y002263D02*
X007224Y002263D01*
X007223Y002263D02*
X007124Y002263D01*
X007223Y002263D02*
X007314Y002225D01*
X007384Y002155D01*
X007422Y002064D01*
X007422Y001965D01*
X007384Y001874D01*
X007314Y001804D01*
X007342Y001832D02*
X008151Y001832D01*
X008123Y001771D02*
X007233Y001771D01*
X007392Y001894D02*
X008212Y001894D01*
X008274Y001955D02*
X007418Y001955D01*
X007422Y002017D02*
X008251Y002017D01*
X008193Y002078D02*
X007416Y002078D01*
X007390Y002140D02*
X008135Y002140D01*
X008076Y002201D02*
X007338Y002201D01*
X007174Y002015D02*
X007016Y001857D01*
X006347Y001857D01*
X006249Y001759D01*
X006249Y001267D01*
X005902Y001279D02*
X005060Y001279D01*
X005060Y001340D02*
X005902Y001340D01*
X005902Y001402D02*
X005060Y001402D01*
X005060Y001463D02*
X005902Y001463D01*
X005902Y001525D02*
X005060Y001525D01*
X005022Y001586D02*
X005940Y001586D01*
X006107Y001648D02*
X004855Y001648D01*
X004806Y001709D02*
X006107Y001709D01*
X006107Y001771D02*
X004744Y001771D01*
X004683Y001832D02*
X006121Y001832D01*
X006183Y001894D02*
X003479Y001894D01*
X003391Y002017D02*
X003260Y002017D01*
X003260Y002078D02*
X003371Y002078D01*
X003371Y002140D02*
X003260Y002140D01*
X003260Y002201D02*
X003371Y002201D01*
X003371Y002263D02*
X003260Y002263D01*
X003260Y002324D02*
X003371Y002324D01*
X003371Y002386D02*
X003260Y002386D01*
X003318Y002447D02*
X003371Y002447D01*
X003260Y001955D02*
X006244Y001955D01*
X005996Y002017D02*
X006926Y002017D01*
X006932Y002078D02*
X006016Y002078D01*
X006016Y002140D02*
X006957Y002140D01*
X007009Y002201D02*
X006143Y002201D01*
X006074Y002333D02*
X006229Y002487D01*
X008001Y002487D01*
X008355Y002113D01*
X009095Y002113D01*
X009603Y001605D01*
X009123Y001586D02*
X009083Y001586D01*
X009083Y001525D02*
X009123Y001525D01*
X009123Y001463D02*
X009083Y001463D01*
X009078Y001402D02*
X009123Y001402D01*
X009123Y001340D02*
X009017Y001340D01*
X008955Y001279D02*
X009123Y001279D01*
X009123Y001217D02*
X008894Y001217D01*
X008832Y001156D02*
X009157Y001156D01*
X009123Y001648D02*
X009083Y001648D01*
X009083Y001709D02*
X009123Y001709D01*
X009123Y001771D02*
X009083Y001771D01*
X009055Y001832D02*
X009123Y001832D01*
X009114Y001894D02*
X008994Y001894D01*
X009053Y001955D02*
X008932Y001955D01*
X008189Y001340D02*
X007884Y001340D01*
X007894Y001279D02*
X008250Y001279D01*
X008127Y001402D02*
X007859Y001402D01*
X007800Y001463D02*
X008123Y001463D01*
X008123Y001648D02*
X006390Y001648D01*
X006399Y001709D02*
X008123Y001709D01*
X007824Y001094D02*
X010074Y001094D01*
X010074Y001033D02*
X007729Y001033D01*
X006742Y000971D02*
X006581Y000971D01*
X006595Y001033D02*
X006729Y001033D01*
X006729Y001094D02*
X006595Y001094D01*
X006595Y001156D02*
X006729Y001156D01*
X006729Y001217D02*
X006595Y001217D01*
X006595Y001279D02*
X006729Y001279D01*
X006729Y001340D02*
X006595Y001340D01*
X006595Y001402D02*
X006729Y001402D01*
X006729Y001463D02*
X006595Y001463D01*
X006595Y001525D02*
X006729Y001525D01*
X006766Y001586D02*
X006557Y001586D01*
X005902Y001217D02*
X005060Y001217D01*
X005060Y001156D02*
X005902Y001156D01*
X005902Y001094D02*
X005060Y001094D01*
X005060Y001033D02*
X005902Y001033D01*
X005916Y000971D02*
X005046Y000971D01*
X004713Y001267D02*
X004713Y001601D01*
X004615Y001700D01*
X003434Y001700D01*
X003394Y001660D01*
X003081Y001340D02*
X000494Y001340D01*
X000494Y001279D02*
X003142Y001279D01*
X003204Y001217D02*
X000494Y001217D01*
X000494Y001156D02*
X003265Y001156D01*
X003019Y001402D02*
X000494Y001402D01*
X000494Y001463D02*
X002977Y001463D01*
X002977Y001525D02*
X000494Y001525D01*
X000494Y001586D02*
X002977Y001586D01*
X002977Y001648D02*
X000494Y001648D01*
X000494Y001709D02*
X002977Y001709D01*
X002977Y001771D02*
X000494Y001771D01*
X000494Y001832D02*
X002977Y001832D01*
X002977Y001894D02*
X000494Y001894D01*
X000494Y001955D02*
X002977Y001955D01*
X003260Y001894D02*
X003309Y001894D01*
X004233Y001525D02*
X004367Y001525D01*
X004367Y001463D02*
X004233Y001463D01*
X004233Y001402D02*
X004367Y001402D01*
X004367Y001340D02*
X004233Y001340D01*
X004233Y001279D02*
X004367Y001279D01*
X004367Y001217D02*
X004233Y001217D01*
X004233Y001156D02*
X004367Y001156D01*
X004367Y001094D02*
X004233Y001094D01*
X004233Y001033D02*
X004367Y001033D01*
X004380Y000971D02*
X004219Y000971D01*
X005481Y002333D02*
X005481Y002645D01*
X005560Y002723D01*
X005993Y002723D01*
X006071Y002645D01*
X008552Y002645D01*
X008603Y002605D01*
X009071Y003097D02*
X008099Y003097D01*
X007882Y002920D01*
X007174Y002920D01*
X006383Y002920D01*
X006383Y003235D02*
X007567Y003235D01*
X007607Y003275D01*
X007381Y003377D02*
X006744Y003377D01*
X006744Y003391D01*
X006742Y003393D01*
X006744Y003394D01*
X006744Y003706D01*
X006742Y003708D01*
X006744Y003709D01*
X006744Y003998D01*
X006756Y004019D01*
X006765Y004053D01*
X006765Y004157D01*
X006407Y004157D01*
X006407Y004204D01*
X006765Y004204D01*
X006765Y004256D01*
X006813Y004208D01*
X007338Y004208D01*
X007402Y004272D01*
X007402Y004954D01*
X007389Y004967D01*
X007402Y004981D01*
X007402Y005663D01*
X007383Y005682D01*
X007432Y005702D01*
X007502Y005772D01*
X007540Y005863D01*
X007540Y005962D01*
X007502Y006053D01*
X007432Y006123D01*
X007341Y006160D01*
X007243Y006160D01*
X007151Y006123D01*
X007083Y006054D01*
X007043Y006054D01*
X007154Y006164D01*
X007237Y006247D01*
X007237Y007980D01*
X007269Y008011D01*
X007255Y007978D01*
X007255Y007839D01*
X007308Y007711D01*
X007406Y007612D01*
X007534Y007559D01*
X008152Y007559D01*
X008280Y007612D01*
X008378Y007711D01*
X008431Y007839D01*
X008431Y007978D01*
X008378Y008106D01*
X008280Y008205D01*
X008152Y008258D01*
X007948Y008258D01*
X007985Y008295D01*
X007985Y008401D01*
X008184Y008401D01*
X008249Y008465D01*
X008249Y008989D01*
X008184Y009054D01*
X007502Y009054D01*
X007438Y008989D01*
X007438Y008465D01*
X007486Y008416D01*
X007273Y008416D01*
X007189Y008333D01*
X007079Y008223D01*
X007079Y009278D01*
X006907Y009450D01*
X006929Y009472D01*
X006929Y010113D01*
X006865Y010178D01*
X006636Y010178D01*
X006623Y010164D01*
X006609Y010178D01*
X006380Y010178D01*
X006367Y010164D01*
X006353Y010178D01*
X006125Y010178D01*
X006111Y010164D01*
X006097Y010178D01*
X005869Y010178D01*
X005855Y010164D01*
X005841Y010178D01*
X005613Y010178D01*
X005599Y010164D01*
X005585Y010178D01*
X005357Y010178D01*
X005356Y010177D01*
X005334Y010190D01*
X010074Y010190D01*
X010074Y003814D01*
X009802Y004085D01*
X009404Y004085D01*
X009123Y003804D01*
X009123Y003406D01*
X009404Y003125D01*
X009802Y003125D01*
X010074Y003397D01*
X010074Y002814D01*
X009802Y003085D01*
X009404Y003085D01*
X009351Y003032D01*
X009170Y003200D01*
X009130Y003239D01*
X009127Y003239D01*
X009125Y003241D01*
X009069Y003239D01*
X008946Y003239D01*
X009104Y003398D01*
X009104Y003574D01*
X008634Y003574D01*
X008634Y003637D01*
X008571Y003637D01*
X008571Y003574D01*
X008101Y003574D01*
X008101Y003398D01*
X008260Y003239D01*
X008106Y003239D01*
X008055Y003244D01*
X008048Y003239D01*
X008040Y003239D01*
X008004Y003203D01*
X007832Y003062D01*
X007742Y003062D01*
X007747Y003064D01*
X007817Y003134D01*
X007855Y003225D01*
X007855Y003324D01*
X007817Y003415D01*
X007747Y003485D01*
X007656Y003523D01*
X007557Y003523D01*
X007466Y003485D01*
X007397Y003415D01*
X007381Y003377D01*
X007412Y003431D02*
X006744Y003431D01*
X006744Y003492D02*
X007485Y003492D01*
X007729Y003492D02*
X008101Y003492D01*
X008101Y003431D02*
X007801Y003431D01*
X007836Y003369D02*
X008129Y003369D01*
X008191Y003308D02*
X007855Y003308D01*
X007855Y003246D02*
X008252Y003246D01*
X007982Y003185D02*
X007838Y003185D01*
X007806Y003123D02*
X007907Y003123D01*
X007832Y003062D02*
X007742Y003062D01*
X008101Y003554D02*
X006744Y003554D01*
X006744Y003615D02*
X008571Y003615D01*
X008571Y003637D02*
X008101Y003637D01*
X008101Y003813D01*
X008395Y004107D01*
X008571Y004107D01*
X008571Y003637D01*
X008571Y003677D02*
X008634Y003677D01*
X008634Y003637D02*
X008634Y004107D01*
X008811Y004107D01*
X009104Y003813D01*
X009104Y003637D01*
X008634Y003637D01*
X008634Y003615D02*
X009123Y003615D01*
X009123Y003554D02*
X009104Y003554D01*
X009104Y003492D02*
X009123Y003492D01*
X009123Y003431D02*
X009104Y003431D01*
X009076Y003369D02*
X009160Y003369D01*
X009221Y003308D02*
X009015Y003308D01*
X008953Y003246D02*
X009283Y003246D01*
X009344Y003185D02*
X009185Y003185D01*
X009252Y003123D02*
X010074Y003123D01*
X010074Y003062D02*
X009825Y003062D01*
X009887Y003000D02*
X010074Y003000D01*
X010074Y002939D02*
X009948Y002939D01*
X010010Y002877D02*
X010074Y002877D01*
X010071Y002816D02*
X010074Y002816D01*
X010074Y003185D02*
X009862Y003185D01*
X009923Y003246D02*
X010074Y003246D01*
X010074Y003308D02*
X009985Y003308D01*
X010046Y003369D02*
X010074Y003369D01*
X010074Y003861D02*
X010026Y003861D01*
X010074Y003923D02*
X009964Y003923D01*
X009903Y003984D02*
X010074Y003984D01*
X010074Y004046D02*
X009841Y004046D01*
X010074Y004107D02*
X006765Y004107D01*
X006763Y004046D02*
X008334Y004046D01*
X008273Y003984D02*
X006744Y003984D01*
X006744Y003923D02*
X008211Y003923D01*
X008150Y003861D02*
X006744Y003861D01*
X006744Y003800D02*
X008101Y003800D01*
X008101Y003738D02*
X006744Y003738D01*
X006744Y003677D02*
X008101Y003677D01*
X008571Y003738D02*
X008634Y003738D01*
X008634Y003800D02*
X008571Y003800D01*
X008571Y003861D02*
X008634Y003861D01*
X008634Y003923D02*
X008571Y003923D01*
X008571Y003984D02*
X008634Y003984D01*
X008634Y004046D02*
X008571Y004046D01*
X008872Y004046D02*
X009364Y004046D01*
X009303Y003984D02*
X008933Y003984D01*
X008994Y003923D02*
X009241Y003923D01*
X009180Y003861D02*
X009056Y003861D01*
X009104Y003800D02*
X009123Y003800D01*
X009123Y003738D02*
X009104Y003738D01*
X009104Y003677D02*
X009123Y003677D01*
X009071Y003097D02*
X009603Y002605D01*
X009380Y003062D02*
X009318Y003062D01*
X010074Y004169D02*
X006407Y004169D01*
X006360Y004169D02*
X004432Y004169D01*
X004371Y004230D02*
X006002Y004230D01*
X006002Y004204D02*
X006002Y004307D01*
X006011Y004341D01*
X006023Y004362D01*
X006023Y004651D01*
X006025Y004652D01*
X006023Y004654D01*
X006023Y004966D01*
X006025Y004967D01*
X006023Y004969D01*
X006023Y005281D01*
X006088Y005345D01*
X006679Y005345D01*
X006680Y005344D01*
X006717Y005380D01*
X006749Y005412D01*
X006749Y005663D01*
X006813Y005727D01*
X007126Y005727D01*
X007083Y005771D01*
X006366Y005771D01*
X006167Y005571D01*
X006016Y005571D01*
X006016Y005417D01*
X005951Y005352D01*
X005640Y005352D01*
X005638Y005354D01*
X005636Y005352D01*
X005325Y005352D01*
X005323Y005354D01*
X005322Y005352D01*
X005010Y005352D01*
X005008Y005354D01*
X005007Y005352D01*
X004695Y005352D01*
X004693Y005354D01*
X004692Y005352D01*
X004678Y005352D01*
X004678Y005295D01*
X004746Y005226D01*
X004784Y005135D01*
X004784Y005036D01*
X004746Y004945D01*
X004676Y004875D01*
X004585Y004838D01*
X004487Y004838D01*
X004395Y004875D01*
X004359Y004912D01*
X004322Y004875D01*
X004231Y004838D01*
X004132Y004838D01*
X004041Y004875D01*
X003971Y004945D01*
X003934Y005036D01*
X003934Y005133D01*
X003764Y005302D01*
X003764Y005352D01*
X003750Y005352D01*
X003749Y005354D01*
X003747Y005352D01*
X003435Y005352D01*
X003371Y005417D01*
X003371Y006008D01*
X003435Y006073D01*
X003747Y006073D01*
X003749Y006071D01*
X003750Y006073D01*
X004062Y006073D01*
X004063Y006071D01*
X004065Y006073D01*
X004079Y006073D01*
X004079Y006129D01*
X004079Y006075D02*
X001693Y006075D01*
X001693Y006014D02*
X003376Y006014D01*
X003371Y005952D02*
X001661Y005952D01*
X000758Y005952D02*
X000494Y005952D01*
X000494Y005891D02*
X003371Y005891D01*
X003371Y005829D02*
X000494Y005829D01*
X000494Y005768D02*
X003371Y005768D01*
X003371Y005706D02*
X000494Y005706D01*
X000494Y005645D02*
X003371Y005645D01*
X003371Y005583D02*
X000494Y005583D01*
X000494Y005522D02*
X003371Y005522D01*
X003371Y005460D02*
X000494Y005460D01*
X000494Y005399D02*
X003389Y005399D01*
X003307Y005337D02*
X003764Y005337D01*
X003791Y005276D02*
X003364Y005276D01*
X003364Y005281D02*
X003299Y005345D01*
X002708Y005345D01*
X002643Y005281D01*
X002643Y004969D01*
X002645Y004967D01*
X002643Y004966D01*
X002643Y004677D01*
X002631Y004656D01*
X002622Y004622D01*
X002622Y004519D01*
X002980Y004519D01*
X002980Y004472D01*
X003027Y004472D02*
X003027Y004519D01*
X003385Y004519D01*
X003385Y004622D01*
X003376Y004656D01*
X003364Y004677D01*
X003364Y004966D01*
X003362Y004967D01*
X003364Y004969D01*
X003364Y005281D01*
X003364Y005214D02*
X003853Y005214D01*
X003914Y005153D02*
X003364Y005153D01*
X003364Y005091D02*
X003934Y005091D01*
X003936Y005030D02*
X003364Y005030D01*
X003363Y004968D02*
X003962Y004968D01*
X004010Y004907D02*
X003364Y004907D01*
X003364Y004845D02*
X004114Y004845D01*
X004250Y004845D02*
X004468Y004845D01*
X004364Y004907D02*
X004354Y004907D01*
X004536Y005086D02*
X004536Y005713D01*
X004221Y005713D02*
X004221Y006070D01*
X004260Y006109D01*
X005284Y006109D01*
X005441Y006267D01*
X006819Y006267D01*
X006938Y006385D01*
X006938Y009219D01*
X006751Y009406D01*
X006751Y009793D01*
X006929Y009765D02*
X007438Y009765D01*
X007438Y009816D02*
X007438Y009292D01*
X007502Y009227D01*
X008184Y009227D01*
X008249Y009292D01*
X008249Y009412D01*
X008504Y009412D01*
X008527Y009357D01*
X008631Y009253D01*
X008766Y009197D01*
X009431Y009197D01*
X009567Y009253D01*
X009671Y009357D01*
X009727Y009492D01*
X009727Y009639D01*
X009671Y009775D01*
X009567Y009879D01*
X009431Y009935D01*
X008766Y009935D01*
X008631Y009879D01*
X008527Y009775D01*
X008494Y009696D01*
X008249Y009696D01*
X008249Y009816D01*
X008184Y009881D01*
X007502Y009881D01*
X007438Y009816D01*
X007447Y009826D02*
X006929Y009826D01*
X006929Y009888D02*
X008652Y009888D01*
X008578Y009826D02*
X008239Y009826D01*
X008249Y009765D02*
X008522Y009765D01*
X008497Y009703D02*
X008249Y009703D01*
X008249Y009396D02*
X008511Y009396D01*
X008549Y009334D02*
X008249Y009334D01*
X008229Y009273D02*
X008611Y009273D01*
X008731Y009211D02*
X007079Y009211D01*
X007079Y009150D02*
X010074Y009150D01*
X010074Y009211D02*
X009467Y009211D01*
X009587Y009273D02*
X010074Y009273D01*
X010074Y009334D02*
X009649Y009334D01*
X009687Y009396D02*
X010074Y009396D01*
X010074Y009457D02*
X009713Y009457D01*
X009727Y009519D02*
X010074Y009519D01*
X010074Y009580D02*
X009727Y009580D01*
X009726Y009642D02*
X010074Y009642D01*
X010074Y009703D02*
X009701Y009703D01*
X009675Y009765D02*
X010074Y009765D01*
X010074Y009826D02*
X009620Y009826D01*
X009546Y009888D02*
X010074Y009888D01*
X010074Y009949D02*
X006929Y009949D01*
X006929Y010011D02*
X010074Y010011D01*
X010074Y010072D02*
X006929Y010072D01*
X006909Y010134D02*
X010074Y010134D01*
X009099Y009566D02*
X009087Y009554D01*
X007843Y009554D01*
X007438Y009580D02*
X006929Y009580D01*
X006929Y009519D02*
X007438Y009519D01*
X007438Y009457D02*
X006914Y009457D01*
X006962Y009396D02*
X007438Y009396D01*
X007438Y009334D02*
X007023Y009334D01*
X007079Y009273D02*
X007457Y009273D01*
X007475Y009027D02*
X007079Y009027D01*
X007079Y009088D02*
X010074Y009088D01*
X010074Y009027D02*
X008211Y009027D01*
X008249Y008965D02*
X010074Y008965D01*
X010074Y008904D02*
X009507Y008904D01*
X009567Y008879D02*
X009431Y008935D01*
X008766Y008935D01*
X008631Y008879D01*
X008527Y008775D01*
X008471Y008639D01*
X008471Y008492D01*
X008527Y008357D01*
X008631Y008253D01*
X008766Y008197D01*
X009431Y008197D01*
X009567Y008253D01*
X009671Y008357D01*
X009727Y008492D01*
X009727Y008639D01*
X009671Y008775D01*
X009567Y008879D01*
X009604Y008842D02*
X010074Y008842D01*
X010074Y008781D02*
X009665Y008781D01*
X009694Y008719D02*
X010074Y008719D01*
X010074Y008658D02*
X009720Y008658D01*
X009727Y008596D02*
X010074Y008596D01*
X010074Y008535D02*
X009727Y008535D01*
X009719Y008473D02*
X010074Y008473D01*
X010074Y008412D02*
X009694Y008412D01*
X009665Y008350D02*
X010074Y008350D01*
X010074Y008289D02*
X009603Y008289D01*
X009506Y008227D02*
X010074Y008227D01*
X010074Y008166D02*
X008319Y008166D01*
X008379Y008104D02*
X010074Y008104D01*
X010074Y008043D02*
X008404Y008043D01*
X008430Y007981D02*
X010074Y007981D01*
X010074Y007920D02*
X009524Y007920D01*
X009543Y007912D02*
X009472Y007941D01*
X009396Y007956D01*
X009130Y007956D01*
X009130Y007597D01*
X009067Y007597D01*
X009067Y007534D01*
X008449Y007534D01*
X008449Y007527D01*
X008464Y007452D01*
X008494Y007381D01*
X008537Y007317D01*
X008591Y007263D01*
X008655Y007220D01*
X008726Y007190D01*
X008801Y007175D01*
X009067Y007175D01*
X009067Y007534D01*
X009130Y007534D01*
X009130Y007175D01*
X009396Y007175D01*
X009472Y007190D01*
X009543Y007220D01*
X009607Y007263D01*
X009661Y007317D01*
X009704Y007381D01*
X009734Y007452D01*
X009749Y007527D01*
X009749Y007534D01*
X009130Y007534D01*
X009130Y007597D01*
X009749Y007597D01*
X009749Y007604D01*
X009734Y007680D01*
X009704Y007751D01*
X009661Y007815D01*
X009607Y007869D01*
X009543Y007912D01*
X009618Y007858D02*
X010074Y007858D01*
X010074Y007797D02*
X009673Y007797D01*
X009711Y007735D02*
X010074Y007735D01*
X010074Y007674D02*
X009735Y007674D01*
X009747Y007612D02*
X010074Y007612D01*
X010074Y007551D02*
X009130Y007551D01*
X009130Y007612D02*
X009067Y007612D01*
X009067Y007597D02*
X009067Y007956D01*
X008801Y007956D01*
X008726Y007941D01*
X008655Y007912D01*
X008591Y007869D01*
X008537Y007815D01*
X008494Y007751D01*
X008464Y007680D01*
X008449Y007604D01*
X008449Y007597D01*
X009067Y007597D01*
X009067Y007551D02*
X007237Y007551D01*
X007237Y007612D02*
X007406Y007612D01*
X007345Y007674D02*
X007237Y007674D01*
X007237Y007735D02*
X007298Y007735D01*
X007272Y007797D02*
X007237Y007797D01*
X007237Y007858D02*
X007255Y007858D01*
X007255Y007920D02*
X007237Y007920D01*
X007238Y007981D02*
X007256Y007981D01*
X007095Y008038D02*
X007331Y008275D01*
X007764Y008275D01*
X007843Y008353D01*
X007843Y008727D01*
X007985Y008350D02*
X008533Y008350D01*
X008504Y008412D02*
X008195Y008412D01*
X008249Y008473D02*
X008479Y008473D01*
X008471Y008535D02*
X008249Y008535D01*
X008249Y008596D02*
X008471Y008596D01*
X008478Y008658D02*
X008249Y008658D01*
X008249Y008719D02*
X008504Y008719D01*
X008532Y008781D02*
X008249Y008781D01*
X008249Y008842D02*
X008594Y008842D01*
X008690Y008904D02*
X008249Y008904D01*
X007979Y008289D02*
X008595Y008289D01*
X008692Y008227D02*
X008225Y008227D01*
X008431Y007920D02*
X008674Y007920D01*
X008580Y007858D02*
X008431Y007858D01*
X008414Y007797D02*
X008524Y007797D01*
X008487Y007735D02*
X008388Y007735D01*
X008342Y007674D02*
X008463Y007674D01*
X008451Y007612D02*
X008280Y007612D01*
X008457Y007489D02*
X007237Y007489D01*
X007237Y007428D02*
X008474Y007428D01*
X008503Y007366D02*
X007237Y007366D01*
X007237Y007305D02*
X008549Y007305D01*
X008619Y007243D02*
X008186Y007243D01*
X008152Y007258D02*
X008280Y007205D01*
X008378Y007106D01*
X008431Y006978D01*
X008431Y006839D01*
X008378Y006711D01*
X008280Y006612D01*
X008152Y006559D01*
X007534Y006559D01*
X007406Y006612D01*
X007308Y006711D01*
X007255Y006839D01*
X007255Y006978D01*
X007308Y007106D01*
X007406Y007205D01*
X007534Y007258D01*
X008152Y007258D01*
X008303Y007182D02*
X008768Y007182D01*
X008766Y006935D02*
X008631Y006879D01*
X008527Y006775D01*
X008471Y006639D01*
X008471Y006492D01*
X008527Y006357D01*
X008608Y006275D01*
X008544Y006212D01*
X008060Y006212D01*
X007977Y006129D01*
X007760Y005912D01*
X007760Y005727D01*
X007640Y005727D01*
X007575Y005663D01*
X007575Y004981D01*
X007589Y004967D01*
X007575Y004954D01*
X007575Y004272D01*
X007640Y004208D01*
X008164Y004208D01*
X008229Y004272D01*
X008229Y004484D01*
X008532Y004786D01*
X008615Y004869D01*
X008615Y004881D01*
X008930Y005197D01*
X009431Y005197D01*
X009567Y005253D01*
X009671Y005357D01*
X009727Y005492D01*
X009727Y005639D01*
X009671Y005775D01*
X009567Y005879D01*
X009431Y005935D01*
X008766Y005935D01*
X008631Y005879D01*
X008527Y005775D01*
X008471Y005639D01*
X008471Y005492D01*
X008527Y005357D01*
X008608Y005275D01*
X008331Y004999D01*
X008331Y004987D01*
X008229Y004884D01*
X008229Y004954D01*
X008215Y004967D01*
X008229Y004981D01*
X008229Y005663D01*
X008164Y005727D01*
X008044Y005727D01*
X008044Y005795D01*
X008177Y005928D01*
X008662Y005928D01*
X008930Y006197D01*
X009431Y006197D01*
X009567Y006253D01*
X009671Y006357D01*
X009727Y006492D01*
X009727Y006639D01*
X009671Y006775D01*
X009567Y006879D01*
X009431Y006935D01*
X008766Y006935D01*
X008626Y006874D02*
X008431Y006874D01*
X008421Y006813D02*
X008565Y006813D01*
X008517Y006751D02*
X008395Y006751D01*
X008358Y006690D02*
X008492Y006690D01*
X008471Y006629D02*
X008296Y006629D01*
X008171Y006567D02*
X008471Y006567D01*
X008471Y006506D02*
X007237Y006506D01*
X007237Y006567D02*
X007515Y006567D01*
X007390Y006629D02*
X007237Y006629D01*
X007237Y006690D02*
X007328Y006690D01*
X007291Y006751D02*
X007237Y006751D01*
X007237Y006813D02*
X007265Y006813D01*
X007255Y006874D02*
X007237Y006874D01*
X007237Y006936D02*
X007255Y006936D01*
X007263Y006997D02*
X007237Y006997D01*
X007237Y007059D02*
X007288Y007059D01*
X007322Y007120D02*
X007237Y007120D01*
X007237Y007182D02*
X007384Y007182D01*
X007500Y007243D02*
X007237Y007243D01*
X006796Y007305D02*
X006369Y007305D01*
X006241Y007305D02*
X006236Y007305D01*
X006236Y007243D02*
X006241Y007243D01*
X006236Y007182D02*
X006241Y007182D01*
X006236Y007120D02*
X006241Y007120D01*
X006236Y007059D02*
X006241Y007059D01*
X006236Y006997D02*
X006241Y006997D01*
X006236Y006936D02*
X006241Y006936D01*
X006236Y006874D02*
X006241Y006874D01*
X006236Y006813D02*
X006241Y006813D01*
X006236Y006751D02*
X006241Y006751D01*
X006236Y006690D02*
X006241Y006690D01*
X006236Y006629D02*
X006241Y006629D01*
X006236Y006567D02*
X006241Y006567D01*
X005986Y006567D02*
X005980Y006567D01*
X005980Y006629D02*
X005986Y006629D01*
X005980Y006690D02*
X005986Y006690D01*
X005980Y006751D02*
X005986Y006751D01*
X005980Y006813D02*
X005986Y006813D01*
X005980Y006874D02*
X005986Y006874D01*
X005980Y006936D02*
X005986Y006936D01*
X005980Y006997D02*
X005986Y006997D01*
X005980Y007059D02*
X005986Y007059D01*
X005980Y007120D02*
X005986Y007120D01*
X005980Y007182D02*
X005986Y007182D01*
X005980Y007243D02*
X005986Y007243D01*
X005980Y007305D02*
X005986Y007305D01*
X005852Y007305D02*
X005090Y007305D01*
X004962Y007305D02*
X004956Y007305D01*
X004956Y007243D02*
X004962Y007243D01*
X004956Y007182D02*
X004962Y007182D01*
X004956Y007120D02*
X004962Y007120D01*
X004956Y007059D02*
X004962Y007059D01*
X004956Y006997D02*
X004962Y006997D01*
X004956Y006936D02*
X004962Y006936D01*
X004956Y006874D02*
X004962Y006874D01*
X004956Y006813D02*
X004962Y006813D01*
X004956Y006751D02*
X004962Y006751D01*
X004956Y006690D02*
X004962Y006690D01*
X004956Y006629D02*
X004962Y006629D01*
X004956Y006567D02*
X004962Y006567D01*
X004873Y006506D02*
X006796Y006506D01*
X006796Y006444D02*
X004873Y006444D01*
X004812Y006383D02*
X005357Y006383D01*
X005295Y006321D02*
X004751Y006321D01*
X005234Y006260D02*
X002675Y006260D01*
X002591Y006198D02*
X004149Y006198D01*
X003906Y005713D02*
X003906Y005361D01*
X004182Y005086D01*
X004604Y004845D02*
X006023Y004845D01*
X006023Y004784D02*
X003364Y004784D01*
X003364Y004722D02*
X006023Y004722D01*
X006023Y004661D02*
X003373Y004661D01*
X003385Y004599D02*
X006023Y004599D01*
X006023Y004538D02*
X003385Y004538D01*
X003385Y004472D02*
X003027Y004472D01*
X003027Y004476D02*
X006023Y004476D01*
X006023Y004415D02*
X004027Y004415D01*
X003995Y004428D02*
X003896Y004428D01*
X003805Y004390D01*
X003764Y004349D01*
X003380Y004349D01*
X003385Y004368D01*
X003385Y004472D01*
X003385Y004415D02*
X003864Y004415D01*
X003768Y004353D02*
X003381Y004353D01*
X003995Y004428D02*
X004086Y004390D01*
X004127Y004349D01*
X004252Y004349D01*
X004351Y004250D01*
X004567Y004034D01*
X006007Y004034D01*
X006002Y004053D01*
X006002Y004157D01*
X006360Y004157D01*
X006360Y004204D01*
X006002Y004204D01*
X006002Y004292D02*
X004309Y004292D01*
X004123Y004353D02*
X006018Y004353D01*
X006002Y004107D02*
X004494Y004107D01*
X004555Y004046D02*
X006004Y004046D01*
X006765Y004230D02*
X006790Y004230D01*
X006819Y004613D02*
X007075Y004613D01*
X006819Y004613D02*
X006623Y004810D01*
X006383Y004810D01*
X006023Y004907D02*
X004708Y004907D01*
X004756Y004968D02*
X006024Y004968D01*
X006023Y005030D02*
X004781Y005030D01*
X004784Y005091D02*
X006023Y005091D01*
X006023Y005153D02*
X004777Y005153D01*
X004751Y005214D02*
X006023Y005214D01*
X006023Y005276D02*
X004697Y005276D01*
X004678Y005337D02*
X006080Y005337D01*
X005998Y005399D02*
X006735Y005399D01*
X006749Y005460D02*
X006016Y005460D01*
X006016Y005522D02*
X006749Y005522D01*
X006749Y005583D02*
X006179Y005583D01*
X006240Y005645D02*
X006749Y005645D01*
X006792Y005706D02*
X006302Y005706D01*
X006363Y005768D02*
X007086Y005768D01*
X007292Y005912D02*
X006308Y005912D01*
X006108Y005713D01*
X005796Y005713D01*
X005481Y005713D02*
X005481Y006070D01*
X005520Y006109D01*
X006898Y006109D01*
X007095Y006306D01*
X007095Y008038D01*
X007079Y008227D02*
X007084Y008227D01*
X007079Y008289D02*
X007145Y008289D01*
X007207Y008350D02*
X007079Y008350D01*
X007079Y008412D02*
X007268Y008412D01*
X007438Y008473D02*
X007079Y008473D01*
X007079Y008535D02*
X007438Y008535D01*
X007438Y008596D02*
X007079Y008596D01*
X007079Y008658D02*
X007438Y008658D01*
X007438Y008719D02*
X007079Y008719D01*
X007079Y008781D02*
X007438Y008781D01*
X007438Y008842D02*
X007079Y008842D01*
X007079Y008904D02*
X007438Y008904D01*
X007438Y008965D02*
X007079Y008965D01*
X006796Y008965D02*
X006634Y008965D01*
X006702Y009027D02*
X006796Y009027D01*
X006796Y009088D02*
X006735Y009088D01*
X006752Y009150D02*
X006796Y009150D01*
X006796Y008904D02*
X005859Y008904D01*
X005859Y008965D02*
X005863Y008965D01*
X005859Y008842D02*
X006796Y008842D01*
X006796Y008781D02*
X005859Y008781D01*
X005859Y008719D02*
X006796Y008719D01*
X006796Y008658D02*
X005859Y008658D01*
X005859Y008596D02*
X006796Y008596D01*
X006796Y008535D02*
X005859Y008535D01*
X005859Y008473D02*
X006796Y008473D01*
X006796Y008412D02*
X005859Y008412D01*
X005859Y008350D02*
X006796Y008350D01*
X006796Y008289D02*
X005859Y008289D01*
X005859Y008227D02*
X006796Y008227D01*
X006796Y008166D02*
X005859Y008166D01*
X005859Y008104D02*
X006796Y008104D01*
X006796Y008043D02*
X005859Y008043D01*
X005859Y007981D02*
X006796Y007981D01*
X006796Y007920D02*
X005859Y007920D01*
X005893Y007858D02*
X006796Y007858D01*
X006796Y007797D02*
X005939Y007797D01*
X005964Y007735D02*
X006796Y007735D01*
X006796Y007674D02*
X005965Y007674D01*
X005956Y007612D02*
X006796Y007612D01*
X006796Y007551D02*
X005930Y007551D01*
X005873Y007489D02*
X006796Y007489D01*
X006796Y007428D02*
X004992Y007428D01*
X005053Y007489D02*
X005561Y007489D01*
X005504Y007551D02*
X005224Y007551D01*
X005288Y007612D02*
X005478Y007612D01*
X005469Y007674D02*
X005319Y007674D01*
X005335Y007735D02*
X005470Y007735D01*
X005495Y007797D02*
X005335Y007797D01*
X005316Y007858D02*
X005541Y007858D01*
X005575Y007920D02*
X005281Y007920D01*
X005256Y007981D02*
X005575Y007981D01*
X005575Y008043D02*
X005256Y008043D01*
X005256Y008104D02*
X005575Y008104D01*
X005575Y008166D02*
X005256Y008166D01*
X005256Y008227D02*
X005575Y008227D01*
X005575Y008289D02*
X005256Y008289D01*
X005256Y008350D02*
X005575Y008350D01*
X005575Y008412D02*
X005256Y008412D01*
X005256Y008473D02*
X005575Y008473D01*
X005575Y008535D02*
X005300Y008535D01*
X005326Y008596D02*
X005575Y008596D01*
X005575Y008658D02*
X005335Y008658D01*
X005334Y008719D02*
X005575Y008719D01*
X005575Y008781D02*
X005309Y008781D01*
X005264Y008842D02*
X005575Y008842D01*
X005575Y008904D02*
X005167Y008904D01*
X005007Y008904D02*
X000494Y008904D01*
X000494Y008965D02*
X005575Y008965D01*
X005575Y009027D02*
X000494Y009027D01*
X000494Y009088D02*
X000771Y009088D01*
X000789Y009070D02*
X000725Y009134D01*
X000725Y009934D01*
X000789Y009999D01*
X001629Y009999D01*
X001693Y009934D01*
X001693Y009134D01*
X001629Y009070D01*
X000789Y009070D01*
X000725Y009150D02*
X000494Y009150D01*
X000494Y009211D02*
X000725Y009211D01*
X000725Y009273D02*
X000494Y009273D01*
X000494Y009334D02*
X000725Y009334D01*
X000725Y009396D02*
X000494Y009396D01*
X000494Y009457D02*
X000725Y009457D01*
X000725Y009519D02*
X000494Y009519D01*
X000494Y009580D02*
X000725Y009580D01*
X000725Y009642D02*
X000494Y009642D01*
X000494Y009703D02*
X000725Y009703D01*
X000725Y009765D02*
X000494Y009765D01*
X000494Y009826D02*
X000725Y009826D01*
X000725Y009888D02*
X000494Y009888D01*
X000494Y009949D02*
X000740Y009949D01*
X000494Y010011D02*
X003245Y010011D01*
X003245Y010072D02*
X000494Y010072D01*
X000494Y010134D02*
X003265Y010134D01*
X003245Y009949D02*
X001679Y009949D01*
X001693Y009888D02*
X003245Y009888D01*
X003245Y009826D02*
X001693Y009826D01*
X001693Y009765D02*
X003245Y009765D01*
X003245Y009703D02*
X001693Y009703D01*
X001693Y009642D02*
X003245Y009642D01*
X003245Y009580D02*
X001693Y009580D01*
X001693Y009519D02*
X003245Y009519D01*
X003260Y009457D02*
X001693Y009457D01*
X001693Y009396D02*
X005095Y009396D01*
X005212Y009396D02*
X005218Y009396D01*
X005212Y009457D02*
X005218Y009457D01*
X005212Y009519D02*
X005218Y009519D01*
X005212Y009580D02*
X005218Y009580D01*
X005212Y009642D02*
X005218Y009642D01*
X005212Y009703D02*
X005218Y009703D01*
X005212Y009765D02*
X005218Y009765D01*
X005334Y010190D02*
X005334Y010190D01*
X005717Y009783D02*
X005727Y009793D01*
X005717Y009783D02*
X005717Y007684D01*
X005841Y007299D02*
X005841Y007299D01*
X004930Y007366D02*
X006796Y007366D01*
X007237Y006444D02*
X008491Y006444D01*
X008516Y006383D02*
X007237Y006383D01*
X007237Y006321D02*
X008562Y006321D01*
X008592Y006260D02*
X007237Y006260D01*
X007187Y006198D02*
X008046Y006198D01*
X007985Y006137D02*
X007399Y006137D01*
X007480Y006075D02*
X007923Y006075D01*
X007862Y006014D02*
X007518Y006014D01*
X007540Y005952D02*
X007800Y005952D01*
X007760Y005891D02*
X007540Y005891D01*
X007526Y005829D02*
X007760Y005829D01*
X007760Y005768D02*
X007498Y005768D01*
X007436Y005706D02*
X007619Y005706D01*
X007575Y005645D02*
X007402Y005645D01*
X007402Y005583D02*
X007575Y005583D01*
X007575Y005522D02*
X007402Y005522D01*
X007402Y005460D02*
X007575Y005460D01*
X007575Y005399D02*
X007402Y005399D01*
X007402Y005337D02*
X007575Y005337D01*
X007575Y005276D02*
X007402Y005276D01*
X007402Y005214D02*
X007575Y005214D01*
X007575Y005153D02*
X007402Y005153D01*
X007402Y005091D02*
X007575Y005091D01*
X007575Y005030D02*
X007402Y005030D01*
X007389Y004968D02*
X007588Y004968D01*
X007575Y004907D02*
X007402Y004907D01*
X007402Y004845D02*
X007575Y004845D01*
X007575Y004784D02*
X007402Y004784D01*
X007402Y004722D02*
X007575Y004722D01*
X007575Y004661D02*
X007402Y004661D01*
X007402Y004599D02*
X007575Y004599D01*
X007575Y004538D02*
X007402Y004538D01*
X007402Y004476D02*
X007575Y004476D01*
X007575Y004415D02*
X007402Y004415D01*
X007402Y004353D02*
X007575Y004353D01*
X007575Y004292D02*
X007402Y004292D01*
X007360Y004230D02*
X007617Y004230D01*
X007902Y004613D02*
X008158Y004613D01*
X008473Y004928D01*
X008473Y004940D01*
X009099Y005566D01*
X009474Y005214D02*
X010074Y005214D01*
X010074Y005153D02*
X008886Y005153D01*
X008825Y005091D02*
X010074Y005091D01*
X010074Y005030D02*
X008763Y005030D01*
X008702Y004968D02*
X010074Y004968D01*
X010074Y004907D02*
X008640Y004907D01*
X008591Y004845D02*
X010074Y004845D01*
X010074Y004784D02*
X008529Y004784D01*
X008468Y004722D02*
X010074Y004722D01*
X010074Y004661D02*
X008406Y004661D01*
X008345Y004599D02*
X010074Y004599D01*
X010074Y004538D02*
X008283Y004538D01*
X008229Y004476D02*
X010074Y004476D01*
X010074Y004415D02*
X008229Y004415D01*
X008229Y004353D02*
X010074Y004353D01*
X010074Y004292D02*
X008229Y004292D01*
X008187Y004230D02*
X010074Y004230D01*
X010074Y005276D02*
X009590Y005276D01*
X009652Y005337D02*
X010074Y005337D01*
X010074Y005399D02*
X009688Y005399D01*
X009714Y005460D02*
X010074Y005460D01*
X010074Y005522D02*
X009727Y005522D01*
X009727Y005583D02*
X010074Y005583D01*
X010074Y005645D02*
X009725Y005645D01*
X009700Y005706D02*
X010074Y005706D01*
X010074Y005768D02*
X009674Y005768D01*
X009617Y005829D02*
X010074Y005829D01*
X010074Y005891D02*
X009539Y005891D01*
X009435Y006198D02*
X010074Y006198D01*
X010074Y006137D02*
X008870Y006137D01*
X008809Y006075D02*
X010074Y006075D01*
X010074Y006014D02*
X008747Y006014D01*
X008686Y005952D02*
X010074Y005952D01*
X010074Y006260D02*
X009574Y006260D01*
X009635Y006321D02*
X010074Y006321D01*
X010074Y006383D02*
X009682Y006383D01*
X009707Y006444D02*
X010074Y006444D01*
X010074Y006506D02*
X009727Y006506D01*
X009727Y006567D02*
X010074Y006567D01*
X010074Y006629D02*
X009727Y006629D01*
X009706Y006690D02*
X010074Y006690D01*
X010074Y006751D02*
X009681Y006751D01*
X009633Y006813D02*
X010074Y006813D01*
X010074Y006874D02*
X009572Y006874D01*
X009430Y007182D02*
X010074Y007182D01*
X010074Y007243D02*
X009578Y007243D01*
X009649Y007305D02*
X010074Y007305D01*
X010074Y007366D02*
X009694Y007366D01*
X009724Y007428D02*
X010074Y007428D01*
X010074Y007489D02*
X009741Y007489D01*
X010074Y007120D02*
X008364Y007120D01*
X008398Y007059D02*
X010074Y007059D01*
X010074Y006997D02*
X008423Y006997D01*
X008431Y006936D02*
X010074Y006936D01*
X009130Y007182D02*
X009067Y007182D01*
X009067Y007243D02*
X009130Y007243D01*
X009130Y007305D02*
X009067Y007305D01*
X009067Y007366D02*
X009130Y007366D01*
X009130Y007428D02*
X009067Y007428D01*
X009067Y007489D02*
X009130Y007489D01*
X009130Y007674D02*
X009067Y007674D01*
X009067Y007735D02*
X009130Y007735D01*
X009130Y007797D02*
X009067Y007797D01*
X009067Y007858D02*
X009130Y007858D01*
X009130Y007920D02*
X009067Y007920D01*
X009099Y006566D02*
X008603Y006070D01*
X008119Y006070D01*
X007902Y005853D01*
X007902Y005322D01*
X008229Y005337D02*
X008546Y005337D01*
X008509Y005399D02*
X008229Y005399D01*
X008229Y005460D02*
X008484Y005460D01*
X008471Y005522D02*
X008229Y005522D01*
X008229Y005583D02*
X008471Y005583D01*
X008473Y005645D02*
X008229Y005645D01*
X008185Y005706D02*
X008498Y005706D01*
X008524Y005768D02*
X008044Y005768D01*
X008078Y005829D02*
X008581Y005829D01*
X008659Y005891D02*
X008140Y005891D01*
X008229Y005276D02*
X008608Y005276D01*
X008547Y005214D02*
X008229Y005214D01*
X008229Y005153D02*
X008485Y005153D01*
X008424Y005091D02*
X008229Y005091D01*
X008229Y005030D02*
X008362Y005030D01*
X008313Y004968D02*
X008216Y004968D01*
X008229Y004907D02*
X008251Y004907D01*
X007075Y005322D02*
X006859Y005322D01*
X006662Y005125D01*
X006383Y005125D01*
X007064Y006075D02*
X007104Y006075D01*
X007126Y006137D02*
X007185Y006137D01*
X004918Y007944D02*
X004877Y007903D01*
X004839Y007812D01*
X004839Y007754D01*
X004534Y007449D01*
X004534Y007299D01*
X004333Y007299D01*
X004333Y007299D01*
X004311Y007311D01*
X004277Y007320D01*
X004194Y007320D01*
X004194Y006917D01*
X004189Y006917D01*
X004189Y007320D01*
X004106Y007320D01*
X004105Y007320D01*
X004105Y007368D01*
X004325Y007588D01*
X004408Y007554D01*
X004507Y007554D01*
X004598Y007592D01*
X004667Y007662D01*
X004705Y007753D01*
X004705Y007851D01*
X004667Y007943D01*
X004598Y008012D01*
X004507Y008050D01*
X004408Y008050D01*
X004317Y008012D01*
X004276Y007971D01*
X004230Y007971D01*
X004130Y007872D01*
X003812Y007553D01*
X003812Y007900D01*
X003728Y007983D01*
X003410Y008302D01*
X004252Y008302D01*
X004351Y008401D01*
X004449Y008499D01*
X004906Y008499D01*
X004918Y008487D01*
X004918Y007944D01*
X004893Y007920D02*
X004677Y007920D01*
X004702Y007858D02*
X004858Y007858D01*
X004839Y007797D02*
X004705Y007797D01*
X004698Y007735D02*
X004820Y007735D01*
X004759Y007674D02*
X004673Y007674D01*
X004697Y007612D02*
X004618Y007612D01*
X004636Y007551D02*
X004288Y007551D01*
X004226Y007489D02*
X004574Y007489D01*
X004534Y007428D02*
X004165Y007428D01*
X004105Y007366D02*
X004534Y007366D01*
X004534Y007305D02*
X004322Y007305D01*
X004194Y007305D02*
X004189Y007305D01*
X004189Y007243D02*
X004194Y007243D01*
X004189Y007182D02*
X004194Y007182D01*
X004189Y007120D02*
X004194Y007120D01*
X004189Y007059D02*
X004194Y007059D01*
X004189Y006997D02*
X004194Y006997D01*
X004189Y006936D02*
X004194Y006936D01*
X003680Y006914D02*
X003670Y006924D01*
X003670Y007841D01*
X003296Y008215D01*
X002371Y008215D01*
X002371Y007960D02*
X003276Y007960D01*
X003434Y007802D01*
X003434Y006924D01*
X003424Y006914D01*
X003245Y006936D02*
X000494Y006936D01*
X000494Y006997D02*
X003245Y006997D01*
X003245Y007059D02*
X000494Y007059D01*
X000494Y007120D02*
X003245Y007120D01*
X003245Y007182D02*
X000494Y007182D01*
X000494Y007243D02*
X001938Y007243D01*
X001926Y007246D02*
X001960Y007238D01*
X002363Y007238D01*
X002363Y007440D01*
X001845Y007440D01*
X001845Y007352D01*
X001854Y007318D01*
X001872Y007288D01*
X001896Y007264D01*
X001926Y007246D01*
X001862Y007305D02*
X000494Y007305D01*
X000494Y007366D02*
X001845Y007366D01*
X001845Y007428D02*
X000494Y007428D01*
X000494Y007489D02*
X001845Y007489D01*
X001847Y007551D02*
X000494Y007551D01*
X000494Y007612D02*
X001867Y007612D01*
X001867Y007674D02*
X000494Y007674D01*
X000494Y007735D02*
X001867Y007735D01*
X001867Y007797D02*
X000494Y007797D01*
X000494Y007858D02*
X001867Y007858D01*
X001867Y007920D02*
X000494Y007920D01*
X000494Y007981D02*
X001867Y007981D01*
X001867Y008043D02*
X000494Y008043D01*
X000494Y008104D02*
X001867Y008104D01*
X001867Y008166D02*
X000494Y008166D01*
X000494Y008227D02*
X001867Y008227D01*
X001867Y008289D02*
X000494Y008289D01*
X000494Y008350D02*
X001867Y008350D01*
X001867Y008412D02*
X000494Y008412D01*
X000494Y008473D02*
X001867Y008473D01*
X001929Y008658D02*
X000494Y008658D01*
X000494Y008719D02*
X004190Y008719D01*
X004129Y008658D02*
X002813Y008658D01*
X003423Y008289D02*
X004918Y008289D01*
X004918Y008350D02*
X004300Y008350D01*
X004361Y008412D02*
X004918Y008412D01*
X004918Y008473D02*
X004423Y008473D01*
X004252Y008781D02*
X000494Y008781D01*
X000494Y008842D02*
X004910Y008842D01*
X005575Y009088D02*
X001647Y009088D01*
X001693Y009150D02*
X005575Y009150D01*
X005575Y009211D02*
X001693Y009211D01*
X001693Y009273D02*
X005575Y009273D01*
X005575Y009334D02*
X001693Y009334D01*
X003484Y008227D02*
X004918Y008227D01*
X004918Y008166D02*
X003546Y008166D01*
X003607Y008104D02*
X004918Y008104D01*
X004918Y008043D02*
X004524Y008043D01*
X004629Y007981D02*
X004918Y007981D01*
X004390Y008043D02*
X003669Y008043D01*
X003730Y007981D02*
X004286Y007981D01*
X004178Y007920D02*
X003792Y007920D01*
X003812Y007858D02*
X004117Y007858D01*
X004055Y007797D02*
X003812Y007797D01*
X003812Y007735D02*
X003994Y007735D01*
X003932Y007674D02*
X003812Y007674D01*
X003812Y007612D02*
X003871Y007612D01*
X003292Y007612D02*
X002875Y007612D01*
X002875Y007674D02*
X003292Y007674D01*
X003292Y007735D02*
X002875Y007735D01*
X002875Y007797D02*
X003238Y007797D01*
X003292Y007551D02*
X002894Y007551D01*
X002896Y007489D02*
X003292Y007489D01*
X003292Y007428D02*
X002896Y007428D01*
X002896Y007366D02*
X003292Y007366D01*
X003292Y007305D02*
X002879Y007305D01*
X002804Y007243D02*
X003254Y007243D01*
X002378Y007243D02*
X002363Y007243D01*
X002363Y007305D02*
X002378Y007305D01*
X002378Y007366D02*
X002363Y007366D01*
X002363Y007428D02*
X002378Y007428D01*
X000725Y006321D02*
X000494Y006321D01*
X000494Y006260D02*
X000725Y006260D01*
X000725Y006198D02*
X000494Y006198D01*
X000494Y006137D02*
X000725Y006137D01*
X000725Y006075D02*
X000494Y006075D01*
X000494Y006014D02*
X000725Y006014D01*
X000494Y005337D02*
X002700Y005337D01*
X002643Y005276D02*
X000494Y005276D01*
X000494Y005214D02*
X002643Y005214D01*
X002643Y005153D02*
X000494Y005153D01*
X000494Y005091D02*
X002643Y005091D01*
X002643Y005030D02*
X000494Y005030D01*
X000494Y004968D02*
X002644Y004968D01*
X002643Y004907D02*
X000494Y004907D01*
X000494Y004845D02*
X002643Y004845D01*
X002643Y004784D02*
X000494Y004784D01*
X000494Y004722D02*
X002643Y004722D01*
X002634Y004661D02*
X000494Y004661D01*
X000494Y004599D02*
X002622Y004599D01*
X002622Y004538D02*
X000494Y004538D01*
X001686Y003738D02*
X002622Y003738D01*
X002643Y003677D02*
X001686Y003677D01*
X001718Y003615D02*
X002643Y003615D01*
X002643Y003554D02*
X001780Y003554D01*
X001841Y003492D02*
X002643Y003492D01*
X002643Y003431D02*
X001903Y003431D01*
X001739Y003000D02*
X000494Y003000D01*
X000494Y002939D02*
X001677Y002939D01*
X001616Y002877D02*
X000494Y002877D01*
X000494Y002816D02*
X001554Y002816D01*
X001493Y002754D02*
X000494Y002754D01*
X000494Y002693D02*
X001431Y002693D01*
X001402Y002631D02*
X000494Y002631D01*
X000494Y002570D02*
X001371Y002570D01*
X001301Y002509D02*
X000494Y002509D01*
X000494Y002447D02*
X001254Y002447D01*
X001229Y002386D02*
X000494Y002386D01*
X000494Y002324D02*
X001215Y002324D01*
X001215Y002263D02*
X000494Y002263D01*
X000494Y002201D02*
X001222Y002201D01*
X001248Y002140D02*
X000494Y002140D01*
X000494Y002078D02*
X001285Y002078D01*
X001347Y002017D02*
X000494Y002017D01*
X000494Y000848D02*
X010074Y000848D01*
X010074Y000787D02*
X000494Y000787D01*
X000494Y000725D02*
X010074Y000725D01*
X010074Y000664D02*
X000494Y000664D01*
X005796Y002333D02*
X006074Y002333D01*
X010049Y001156D02*
X010074Y001156D01*
X006375Y008965D02*
X006122Y008965D01*
X006190Y009027D02*
X006307Y009027D01*
X006274Y009088D02*
X006223Y009088D01*
X006241Y009150D02*
X006256Y009150D01*
X006256Y009211D02*
X006241Y009211D01*
X006223Y009273D02*
X006274Y009273D01*
X006308Y009334D02*
X006189Y009334D01*
X006152Y009396D02*
X006363Y009396D01*
X006504Y009180D02*
X006504Y009783D01*
X006495Y009793D01*
X006929Y009703D02*
X007438Y009703D01*
X007438Y009642D02*
X006929Y009642D01*
X005575Y009396D02*
X005335Y009396D01*
D25*
X005205Y009101D03*
X005087Y008668D03*
X004615Y008235D03*
X004457Y007802D03*
X005087Y007763D03*
X005717Y007684D03*
X006150Y007763D03*
X005993Y009180D03*
X006504Y009180D03*
X007252Y009534D03*
X003630Y008865D03*
X002607Y006975D03*
X002489Y006424D03*
X002528Y005479D03*
X003512Y004456D03*
X003945Y004180D03*
X003552Y003865D03*
X004536Y004495D03*
X004536Y005086D03*
X004182Y005086D03*
X005717Y004180D03*
X006938Y003786D03*
X007607Y003275D03*
X007174Y002920D03*
X007174Y002015D03*
X007646Y001267D03*
X005678Y001778D03*
X005323Y000873D03*
X003394Y001660D03*
X007292Y005912D03*
D26*
X005087Y007763D02*
X005087Y008668D01*
X004378Y008668D01*
X004182Y008471D01*
X002371Y008471D01*
X003936Y007438D02*
X004300Y007802D01*
X004457Y007802D01*
X004703Y007379D02*
X005087Y007763D01*
X004703Y007379D02*
X004703Y006914D01*
X004703Y006513D01*
X004654Y006464D01*
X002528Y006464D01*
X002489Y006424D01*
X003936Y006914D02*
X003936Y007438D01*
X005983Y009190D02*
X005993Y009180D01*
X005983Y009190D02*
X005983Y009793D01*
X004182Y004180D02*
X003945Y004180D01*
X003945Y003708D01*
X003788Y003550D01*
X003434Y003550D01*
X003003Y003550D01*
X003003Y004180D02*
X003945Y004180D01*
X004182Y004180D02*
X004497Y003865D01*
X005796Y003865D01*
X005835Y003826D01*
X005835Y003314D01*
X005914Y003235D01*
X006383Y003235D01*
X006383Y003865D02*
X005796Y003865D01*
M02*
