G75*
G70*
%OFA0B0*%
%FSLAX24Y24*%
%IPPOS*%
%LPD*%
%AMOC8*
5,1,8,0,0,1.08239X$1,22.5*
%
%ADD10C,0.0000*%
%ADD11R,0.0580X0.0300*%
%ADD12R,0.0300X0.0580*%
%ADD13C,0.0518*%
%ADD14C,0.0598*%
%ADD15C,0.0558*%
%ADD16R,0.0820X0.0820*%
%ADD17OC8,0.0820*%
%ADD18R,0.0552X0.0552*%
%ADD19R,0.0513X0.0671*%
%ADD20R,0.0671X0.0513*%
%ADD21R,0.0217X0.0630*%
%ADD22R,0.0867X0.0237*%
%ADD23R,0.0828X0.0789*%
%ADD24C,0.0356*%
D10*
X000363Y000479D02*
X000363Y010322D01*
X010205Y010322D01*
X010205Y000479D01*
X000363Y000479D01*
D11*
X003003Y002920D03*
X003003Y003235D03*
X003003Y003550D03*
X003003Y003865D03*
X003003Y004180D03*
X003003Y004495D03*
X003003Y004810D03*
X003003Y005125D03*
X006383Y005125D03*
X006383Y004810D03*
X006383Y004495D03*
X006383Y004180D03*
X006383Y003865D03*
X006383Y003550D03*
X006383Y003235D03*
X006383Y002920D03*
D12*
X005796Y002333D03*
X005481Y002333D03*
X005166Y002333D03*
X004851Y002333D03*
X004536Y002333D03*
X004221Y002333D03*
X003906Y002333D03*
X003591Y002333D03*
X003591Y005713D03*
X003906Y005713D03*
X004221Y005713D03*
X004536Y005713D03*
X004851Y005713D03*
X005166Y005713D03*
X005481Y005713D03*
X005796Y005713D03*
D13*
X001544Y004185D03*
X001544Y002285D03*
D14*
X008840Y005566D02*
X009358Y005566D01*
X009358Y006566D02*
X008840Y006566D01*
X008840Y007566D02*
X009358Y007566D01*
X009358Y008566D02*
X008840Y008566D01*
X008840Y009566D02*
X009358Y009566D01*
D15*
X008082Y007908D02*
X007604Y007908D01*
X007604Y006908D02*
X008082Y006908D01*
D16*
X009603Y001605D03*
D17*
X008603Y001605D03*
X008603Y002605D03*
X009603Y002605D03*
X009603Y003605D03*
X008603Y003605D03*
D18*
X007075Y001267D03*
X006249Y001267D03*
X004713Y001267D03*
X003886Y001267D03*
D19*
X007075Y004613D03*
X007902Y004613D03*
X007902Y005322D03*
X007075Y005322D03*
D20*
X007843Y008727D03*
X007843Y009554D03*
D21*
X006751Y009793D03*
X006495Y009793D03*
X006239Y009793D03*
X005983Y009793D03*
X005727Y009793D03*
X005471Y009793D03*
X005215Y009793D03*
X004959Y009793D03*
X004703Y009793D03*
X004447Y009793D03*
X004191Y009793D03*
X003936Y009793D03*
X003680Y009793D03*
X003424Y009793D03*
X003424Y006914D03*
X003680Y006914D03*
X003936Y006914D03*
X004191Y006914D03*
X004447Y006914D03*
X004703Y006914D03*
X004959Y006914D03*
X005215Y006914D03*
X005471Y006914D03*
X005727Y006914D03*
X005983Y006914D03*
X006239Y006914D03*
X006495Y006914D03*
X006751Y006914D03*
D22*
X002371Y007448D03*
X002371Y007704D03*
X002371Y007960D03*
X002371Y008215D03*
X002371Y008471D03*
D23*
X001209Y009534D03*
X001209Y006385D03*
D24*
X002489Y006424D03*
X002607Y006975D03*
X002528Y005479D03*
X003512Y004456D03*
X003945Y004180D03*
X003552Y003865D03*
X004536Y004495D03*
X004536Y005086D03*
X004182Y005086D03*
X005717Y004180D03*
X006938Y003786D03*
X007607Y003275D03*
X007174Y002920D03*
X007174Y002015D03*
X007646Y001267D03*
X005678Y001778D03*
X005323Y000873D03*
X003394Y001660D03*
X007292Y005912D03*
X005717Y007684D03*
X006150Y007763D03*
X005087Y007763D03*
X004615Y008235D03*
X004457Y007802D03*
X005087Y008668D03*
X005205Y009101D03*
X005993Y009180D03*
X006504Y009180D03*
X007252Y009534D03*
X003630Y008865D03*
M02*
