G75*
G70*
%OFA0B0*%
%FSLAX24Y24*%
%IPPOS*%
%LPD*%
%AMOC8*
5,1,8,0,0,1.08239X$1,22.5*
%
%ADD10C,0.0000*%
%ADD11C,0.0060*%
%ADD12C,0.0010*%
%ADD13C,0.0160*%
%ADD14C,0.0050*%
%ADD15C,0.0300*%
%ADD16R,0.0200X0.0300*%
%ADD17R,0.0400X0.0300*%
%ADD18C,0.0040*%
%ADD19R,0.0079X0.0079*%
D10*
X000363Y000479D02*
X000363Y010322D01*
X010205Y010322D01*
X010205Y000479D01*
X000363Y000479D01*
D11*
X000894Y002035D02*
X000894Y004435D01*
X000896Y004485D01*
X000902Y004534D01*
X000911Y004583D01*
X000924Y004631D01*
X000941Y004678D01*
X000961Y004723D01*
X000985Y004767D01*
X001012Y004809D01*
X001043Y004849D01*
X001076Y004886D01*
X001112Y004920D01*
X001150Y004952D01*
X001191Y004981D01*
X001233Y005006D01*
X001278Y005028D01*
X001324Y005047D01*
X001372Y005062D01*
X001420Y005073D01*
X001469Y005081D01*
X001519Y005085D01*
X001569Y005085D01*
X001619Y005081D01*
X001668Y005073D01*
X001716Y005062D01*
X001764Y005047D01*
X001810Y005028D01*
X001855Y005006D01*
X001897Y004981D01*
X001938Y004952D01*
X001976Y004920D01*
X002012Y004886D01*
X002045Y004849D01*
X002076Y004809D01*
X002103Y004767D01*
X002127Y004723D01*
X002147Y004678D01*
X002164Y004631D01*
X002177Y004583D01*
X002186Y004534D01*
X002192Y004485D01*
X002194Y004435D01*
X002194Y002035D01*
X002192Y001985D01*
X002186Y001936D01*
X002177Y001887D01*
X002164Y001839D01*
X002147Y001792D01*
X002127Y001747D01*
X002103Y001703D01*
X002076Y001661D01*
X002045Y001621D01*
X002012Y001584D01*
X001976Y001550D01*
X001938Y001518D01*
X001897Y001489D01*
X001855Y001464D01*
X001810Y001442D01*
X001764Y001423D01*
X001716Y001408D01*
X001668Y001397D01*
X001619Y001389D01*
X001569Y001385D01*
X001519Y001385D01*
X001469Y001389D01*
X001420Y001397D01*
X001372Y001408D01*
X001324Y001423D01*
X001278Y001442D01*
X001233Y001464D01*
X001191Y001489D01*
X001150Y001518D01*
X001112Y001550D01*
X001076Y001584D01*
X001043Y001621D01*
X001012Y001661D01*
X000985Y001703D01*
X000961Y001747D01*
X000941Y001792D01*
X000924Y001839D01*
X000911Y001887D01*
X000902Y001936D01*
X000896Y001985D01*
X000894Y002035D01*
X001544Y002735D02*
X001544Y002985D01*
X001244Y002985D01*
X001244Y003135D02*
X001244Y003335D01*
X001844Y003335D01*
X001844Y003135D01*
X001244Y003135D01*
X001544Y002985D02*
X001844Y002985D01*
X001844Y003485D02*
X001544Y003485D01*
X001544Y003735D01*
X001544Y003485D02*
X001244Y003485D01*
X003313Y002643D02*
X003313Y005263D01*
X003453Y005402D01*
X006073Y005402D01*
X006073Y002643D01*
X003313Y002643D01*
X003472Y005103D02*
X003474Y005126D01*
X003480Y005149D01*
X003489Y005170D01*
X003502Y005190D01*
X003518Y005207D01*
X003536Y005221D01*
X003556Y005232D01*
X003578Y005240D01*
X003601Y005244D01*
X003625Y005244D01*
X003648Y005240D01*
X003670Y005232D01*
X003690Y005221D01*
X003708Y005207D01*
X003724Y005190D01*
X003737Y005170D01*
X003746Y005149D01*
X003752Y005126D01*
X003754Y005103D01*
X003752Y005080D01*
X003746Y005057D01*
X003737Y005036D01*
X003724Y005016D01*
X003708Y004999D01*
X003690Y004985D01*
X003670Y004974D01*
X003648Y004966D01*
X003625Y004962D01*
X003601Y004962D01*
X003578Y004966D01*
X003556Y004974D01*
X003536Y004985D01*
X003518Y004999D01*
X003502Y005016D01*
X003489Y005036D01*
X003480Y005057D01*
X003474Y005080D01*
X003472Y005103D01*
X003040Y007202D02*
X003040Y009505D01*
X007134Y009505D01*
X007134Y007202D01*
X003040Y007202D01*
X006570Y009121D02*
X006572Y009147D01*
X006578Y009173D01*
X006587Y009198D01*
X006600Y009221D01*
X006616Y009242D01*
X006635Y009260D01*
X006657Y009276D01*
X006680Y009288D01*
X006705Y009296D01*
X006731Y009301D01*
X006758Y009302D01*
X006784Y009299D01*
X006809Y009292D01*
X006834Y009282D01*
X006856Y009268D01*
X006877Y009251D01*
X006894Y009232D01*
X006909Y009210D01*
X006920Y009186D01*
X006928Y009160D01*
X006932Y009134D01*
X006932Y009108D01*
X006928Y009082D01*
X006920Y009056D01*
X006909Y009032D01*
X006894Y009010D01*
X006877Y008991D01*
X006856Y008974D01*
X006834Y008960D01*
X006809Y008950D01*
X006784Y008943D01*
X006758Y008940D01*
X006731Y008941D01*
X006705Y008946D01*
X006680Y008954D01*
X006657Y008966D01*
X006635Y008982D01*
X006616Y009000D01*
X006600Y009021D01*
X006587Y009044D01*
X006578Y009069D01*
X006572Y009095D01*
X006570Y009121D01*
X007343Y008308D02*
X007443Y008408D01*
X008243Y008408D01*
X008343Y008308D01*
X008343Y007508D01*
X008243Y007408D01*
X008343Y007308D01*
X008343Y006508D01*
X008243Y006408D01*
X007443Y006408D01*
X007343Y006508D01*
X007343Y007308D01*
X007443Y007408D01*
X007343Y007508D01*
X007343Y008308D01*
X009849Y008066D02*
X009849Y007066D01*
X009849Y006066D01*
X009849Y005066D01*
X010849Y005066D01*
X010849Y006066D01*
X010849Y007066D01*
X010849Y008066D01*
X010849Y009066D01*
X010849Y010066D01*
X009849Y010066D01*
X009849Y009066D01*
X009849Y008066D01*
X010849Y008066D01*
X010849Y009066D02*
X009849Y009066D01*
X009849Y007066D02*
X010849Y007066D01*
X010849Y006066D02*
X009849Y006066D01*
D12*
X006545Y007723D02*
X006520Y007698D01*
X006470Y007698D01*
X006445Y007723D01*
X006545Y007823D01*
X006545Y007723D01*
X006445Y007723D02*
X006445Y007823D01*
X006470Y007848D01*
X006520Y007848D01*
X006545Y007823D01*
X006398Y007823D02*
X006398Y007723D01*
X006373Y007698D01*
X006322Y007698D01*
X006297Y007723D01*
X006398Y007823D01*
X006373Y007848D01*
X006322Y007848D01*
X006297Y007823D01*
X006297Y007723D01*
X006250Y007698D02*
X006150Y007698D01*
X006200Y007698D02*
X006200Y007848D01*
X006150Y007798D01*
X006103Y007823D02*
X006078Y007848D01*
X006028Y007848D01*
X006003Y007823D01*
X006003Y007723D01*
X006028Y007698D01*
X006078Y007698D01*
X006103Y007723D01*
X005955Y007698D02*
X005905Y007698D01*
X005930Y007698D02*
X005930Y007848D01*
X005905Y007848D02*
X005955Y007848D01*
X003696Y006028D02*
X003596Y006028D01*
X003646Y006028D02*
X003646Y006178D01*
X003596Y006128D01*
X003548Y006178D02*
X003548Y006053D01*
X003523Y006028D01*
X003473Y006028D01*
X003448Y006053D01*
X003448Y006178D01*
X002545Y009188D02*
X002405Y009282D01*
X002428Y009326D02*
X002405Y009350D01*
X002405Y009397D01*
X002428Y009420D01*
X002452Y009420D01*
X002545Y009326D01*
X002545Y009420D01*
X002545Y009282D02*
X002405Y009188D01*
D13*
X002394Y004435D02*
X002394Y002035D01*
X002392Y001978D01*
X002386Y001922D01*
X002377Y001866D01*
X002364Y001810D01*
X002347Y001756D01*
X002327Y001703D01*
X002303Y001652D01*
X002275Y001602D01*
X002245Y001554D01*
X002211Y001508D01*
X002174Y001465D01*
X002135Y001424D01*
X002093Y001386D01*
X002048Y001351D01*
X002001Y001319D01*
X001952Y001290D01*
X001902Y001264D01*
X001849Y001242D01*
X001796Y001223D01*
X001741Y001208D01*
X001685Y001197D01*
X001629Y001189D01*
X001572Y001185D01*
X001516Y001185D01*
X001459Y001189D01*
X001403Y001197D01*
X001347Y001208D01*
X001292Y001223D01*
X001239Y001242D01*
X001186Y001264D01*
X001136Y001290D01*
X001087Y001319D01*
X001040Y001351D01*
X000995Y001386D01*
X000953Y001424D01*
X000914Y001465D01*
X000877Y001508D01*
X000843Y001554D01*
X000813Y001602D01*
X000785Y001652D01*
X000761Y001703D01*
X000741Y001756D01*
X000724Y001810D01*
X000711Y001866D01*
X000702Y001922D01*
X000696Y001978D01*
X000694Y002035D01*
X000694Y004435D01*
X000696Y004492D01*
X000702Y004548D01*
X000711Y004604D01*
X000724Y004660D01*
X000741Y004714D01*
X000761Y004767D01*
X000785Y004818D01*
X000813Y004868D01*
X000843Y004916D01*
X000877Y004962D01*
X000914Y005005D01*
X000953Y005046D01*
X000995Y005084D01*
X001040Y005119D01*
X001087Y005151D01*
X001136Y005180D01*
X001186Y005206D01*
X001239Y005228D01*
X001292Y005247D01*
X001347Y005262D01*
X001403Y005273D01*
X001459Y005281D01*
X001516Y005285D01*
X001572Y005285D01*
X001629Y005281D01*
X001685Y005273D01*
X001741Y005262D01*
X001796Y005247D01*
X001849Y005228D01*
X001902Y005206D01*
X001952Y005180D01*
X002001Y005151D01*
X002048Y005119D01*
X002093Y005084D01*
X002135Y005046D01*
X002174Y005005D01*
X002211Y004962D01*
X002245Y004916D01*
X002275Y004868D01*
X002303Y004818D01*
X002327Y004767D01*
X002347Y004714D01*
X002364Y004660D01*
X002377Y004604D01*
X002386Y004548D01*
X002392Y004492D01*
X002394Y004435D01*
D14*
X002618Y004414D02*
X002618Y004565D01*
X002693Y004640D01*
X002994Y004640D01*
X003069Y004565D01*
X003069Y004414D01*
X002994Y004339D01*
X002693Y004339D01*
X002618Y004414D01*
X002919Y004490D02*
X003069Y004640D01*
X003069Y004800D02*
X003069Y005100D01*
X003069Y004950D02*
X002618Y004950D01*
X002769Y004800D01*
X002331Y006499D02*
X002331Y006503D01*
X002331Y007302D01*
X002331Y006503D02*
X001650Y006503D01*
X000768Y006503D02*
X000363Y006503D01*
X000365Y006499D01*
X000363Y006503D02*
X000363Y006739D01*
X000203Y006739D01*
X000185Y006745D01*
X000169Y006753D01*
X000154Y006765D01*
X000142Y006779D01*
X000133Y006795D01*
X000127Y006813D01*
X000125Y006831D01*
X000126Y006850D01*
X000126Y006849D02*
X000126Y007960D01*
X000126Y009070D01*
X000127Y009085D01*
X000132Y009100D01*
X000139Y009113D01*
X000149Y009124D01*
X000162Y009133D01*
X000176Y009139D01*
X000191Y009141D01*
X000363Y009141D01*
X000363Y009416D01*
X000768Y009416D01*
X000376Y009410D02*
X000128Y009534D01*
X000363Y009141D02*
X000363Y006739D01*
X000373Y006507D02*
X000128Y006387D01*
X000128Y007950D02*
X000126Y007953D01*
X000125Y007956D01*
X000126Y007960D01*
X001648Y009416D02*
X002331Y009416D01*
X002331Y008617D01*
X006718Y007579D02*
X006718Y007429D01*
X006793Y007354D01*
X006793Y007194D02*
X006943Y007194D01*
X007018Y007119D01*
X007018Y006894D01*
X007168Y006894D02*
X006718Y006894D01*
X006718Y007119D01*
X006793Y007194D01*
X007168Y007354D02*
X006868Y007654D01*
X006793Y007654D01*
X006718Y007579D01*
X007168Y007654D02*
X007168Y007354D01*
X007093Y006659D02*
X006718Y006659D01*
X006718Y006584D02*
X006718Y006734D01*
X007093Y006659D02*
X007168Y006584D01*
X007168Y006508D01*
X007093Y006433D01*
X009199Y010341D02*
X009274Y010341D01*
X009349Y010416D01*
X009349Y010791D01*
X009274Y010791D02*
X009424Y010791D01*
X009584Y010791D02*
X009810Y010791D01*
X009885Y010716D01*
X009885Y010566D01*
X009810Y010491D01*
X009584Y010491D01*
X009584Y010341D02*
X009584Y010791D01*
X010045Y010641D02*
X010195Y010791D01*
X010195Y010341D01*
X010045Y010341D02*
X010345Y010341D01*
X009199Y010341D02*
X009124Y010416D01*
X007828Y001891D02*
X007828Y001591D01*
X007828Y001741D02*
X007377Y001741D01*
X007528Y001591D01*
X007377Y001431D02*
X007377Y001280D01*
X007377Y001355D02*
X007753Y001355D01*
X007828Y001280D01*
X007828Y001205D01*
X007753Y001130D01*
D15*
X011099Y005566D02*
X013349Y005566D01*
X013349Y006566D02*
X011099Y006566D01*
X011099Y007566D02*
X013349Y007566D01*
X013349Y008566D02*
X011099Y008566D01*
X011099Y009566D02*
X013349Y009566D01*
D16*
X010949Y009566D03*
X010949Y008566D03*
X010949Y007566D03*
X010949Y006566D03*
X010949Y005566D03*
D17*
X009649Y005566D03*
X009649Y006566D03*
X009649Y007566D03*
X009649Y008566D03*
X009649Y009566D03*
D18*
X008823Y008950D02*
X008746Y008950D01*
X008439Y009257D01*
X008363Y009257D01*
X008363Y008950D01*
X008439Y008797D02*
X008593Y008797D01*
X008670Y008720D01*
X008670Y008490D01*
X008823Y008490D02*
X008363Y008490D01*
X008363Y008720D01*
X008439Y008797D01*
X008670Y008643D02*
X008823Y008797D01*
X007605Y004802D02*
X007298Y004802D01*
X007298Y004572D01*
X007452Y004649D01*
X007528Y004649D01*
X007605Y004572D01*
X007605Y004419D01*
X007528Y004342D01*
X007375Y004342D01*
X007298Y004419D01*
X007145Y004342D02*
X006991Y004495D01*
X007068Y004495D02*
X006838Y004495D01*
X006838Y004342D02*
X006838Y004802D01*
X007068Y004802D01*
X007145Y004725D01*
X007145Y004572D01*
X007068Y004495D01*
X007068Y004094D02*
X006838Y004094D01*
X006838Y003633D01*
X006838Y003787D02*
X007068Y003787D01*
X007145Y003863D01*
X007145Y004017D01*
X007068Y004094D01*
X006991Y003787D02*
X007145Y003633D01*
X007298Y003863D02*
X007605Y003863D01*
X007528Y003633D02*
X007528Y004094D01*
X007298Y003863D01*
X007333Y002247D02*
X007103Y002247D01*
X007103Y001787D01*
X007333Y001787D01*
X007410Y001863D01*
X007410Y002170D01*
X007333Y002247D01*
X007563Y002094D02*
X007717Y002247D01*
X007717Y001787D01*
X007870Y001787D02*
X007563Y001787D01*
X006949Y001787D02*
X006642Y001787D01*
X006642Y002247D01*
X006949Y002247D01*
X006796Y002017D02*
X006642Y002017D01*
X006489Y001787D02*
X006182Y001787D01*
X006182Y002247D01*
X005508Y002170D02*
X005508Y002094D01*
X005201Y001787D01*
X005508Y001787D01*
X005508Y002170D02*
X005431Y002247D01*
X005278Y002247D01*
X005201Y002170D01*
X005047Y002170D02*
X004971Y002247D01*
X004740Y002247D01*
X004740Y001787D01*
X004971Y001787D01*
X005047Y001863D01*
X005047Y002170D01*
X004587Y002247D02*
X004280Y002247D01*
X004280Y001787D01*
X004587Y001787D01*
X004434Y002017D02*
X004280Y002017D01*
X004127Y001787D02*
X003820Y001787D01*
X003820Y002247D01*
D19*
X004339Y001267D03*
X006701Y001267D03*
M02*
